<svg id="Layer_1" data-name="Layer 1" xmlns="http://www.w3.org/2000/svg" viewBox="0 0 285 285"><defs><style>.cls-1,.cls-2{fill:#1a1a18;}.cls-2{fill-rule:evenodd;}.cls-3{fill:#231f20;}</style></defs><title>Webpage logo 285x285px</title><path class="cls-1" d="M38.59,148.76h0v4.79h1.66s3.34,0,3.34-2.69c0-1.59-1.87-2.08-3-2.08s-2,0-2,0m0-13.88h0v4.79h1.66s3.34,0,3.34-2.69c0-1.59-1.87-2.08-3-2.08S38.56,134.91,38.59,134.88ZM25.33,124.25H45.68S56.62,124,57,133.52a10.93,10.93,0,0,1-4.3,9.49s6.78,2.48,5.51,12.25c-1.32,10.21-17.39,9.88-17.39,9.88H25.33Z"/><path class="cls-1" d="M80.25,137.09h0c-3.54,0-6.4,3.41-6.4,7.63s2.87,7.63,6.4,7.63,6.4-3.42,6.4-7.63-2.87-7.63-6.4-7.63m21.42,7.63A21.42,21.42,0,1,1,80.25,123.4,21.37,21.37,0,0,1,101.68,144.72Z"/><polygon class="cls-1" points="103.54 165.13 103.54 124.31 119.16 124.31 126.23 139.93 126.23 124.31 141.15 124.31 141.15 165.07 125.7 165.07 118.5 148.9 118.5 165.16 103.54 165.13"/><path class="cls-1" d="M161.49,151.16h-2.81V138.31h3.18s4.52-.31,4.67,5.94c.17,6.74-3.7,6.91-5,6.91m17.39-17.79c-6-9.65-19.73-9.05-19.73-9.05H143.82v40.85h13.55c3.67,0,11.29-.18,17-4.27Z"/><polygon class="cls-2" points="200.88 151.24 191.94 151.24 189.57 165.79 174.68 165.79 181.32 124.94 207.59 124.94 205.68 136.65 194.12 136.65 193.32 141.57 202.45 141.57 200.88 151.24"/><polygon class="cls-2" points="207.34 141.57 203.41 165.79 218.11 165.79 222.05 141.57 207.34 141.57"/><polygon class="cls-2" points="222.85 136.65 224.76 124.94 210.05 124.94 208.14 136.65 222.85 136.65"/><polygon class="cls-2" points="259.5 124.94 227.34 124.94 225.44 136.65 233.07 136.65 228.33 165.79 243.04 165.79 247.78 136.65 257.6 136.65 259.5 124.94"/><path class="cls-3" d="M253.05,123v-3.46h-1.32V119h3.32v.6h-1.32V123Zm2.46,0V119h1l1,3.24,1-3.24h1V123h-.62v-3.41l-1,3.41h-.61l-1.09-3.46V123Z"/></svg>