<svg id="Layer_1" data-name="Layer 1" xmlns="http://www.w3.org/2000/svg" viewBox="0 0 285 285"><defs><style>.cls-1{fill:#231f20;}</style></defs><title>Webpage logo 285x285px</title><path class="cls-1" d="M234.64,138c-3.82,1.5-6.3,3-7.4,4.5s-1.65,3.88-1.65,7.16v37.89a4.55,4.55,0,0,0,.67,2.78,1.91,1.91,0,0,0,1.65.89q1.42,0,3.21-3a25.45,25.45,0,0,0,3.52-13.61Zm-19.36-29a15.08,15.08,0,0,1,2.42-.67,11,11,0,0,1,2.14-.21,8,8,0,0,1,6.06,2.6,9.4,9.4,0,0,1,2.45,6.79,9.51,9.51,0,0,1-2.51,6.91,8.78,8.78,0,0,1-6.7,2.6,8.53,8.53,0,0,1-6.64-2.66c-1.62-1.74-2.42-4.37-2.42-7.83a16.57,16.57,0,0,1,5.81-12.9q5.83-5.18,16.57-5.2,9.68,0,13.94,3.64a11.6,11.6,0,0,1,4.25,9.27v77.4a3.34,3.34,0,0,0,.7,2.2,2,2,0,0,0,1.53.86c1.5,0,3-1.59,4.59-4.74.4-1,.83-1.44,1.25-1.44l1.07,1c0,2.08-1.35,4.31-4,6.64a14.27,14.27,0,0,1-9.66,3.49c-3.24,0-5.72-.73-7.49-2.23s-3.09-4.13-4-7.89c-2.75,4.07-5.17,6.76-7.22,8.1a13.11,13.11,0,0,1-7.31,2c-3.39,0-6-.89-7.83-2.63a9.23,9.23,0,0,1-2.75-6.94V153.29c0-3.64.79-6.33,2.39-8s6.24-3.88,14-6.45a68.16,68.16,0,0,0,8.72-3.61V109.4a8.73,8.73,0,0,0-2.11-6.27,7.22,7.22,0,0,0-5.5-2.26Q219.13,100.87,215.28,108.94Zm-47.77-7.16h-3.76a1.15,1.15,0,0,1-.86-.34,1.06,1.06,0,0,1-.31-.83,1.13,1.13,0,0,1,.31-.86,1.15,1.15,0,0,1,.86-.34H183.3v11.83c2-5.38,3.91-8.87,5.69-10.49a8.23,8.23,0,0,1,5.6-2.42q4,0,7.25,4c2.75,3.46,4.13,7.83,4.13,13.09,0,4.46-.92,7.86-2.75,10.15s-3.82,3.46-6,3.46a5.43,5.43,0,0,1-4.5-2.32c-1.62-2.08-2.42-5.08-2.42-9a20,20,0,0,1,3.39-11c1.16-1.8,1.71-3,1.71-3.67a1.92,1.92,0,0,0-.61-1.41,2.17,2.17,0,0,0-1.53-.58,4.49,4.49,0,0,0-3.24,1.62c-1.71,1.77-3.27,5-4.65,9.72a56.71,56.71,0,0,0-2,16v64.77h4.56a1.29,1.29,0,0,1,1,.37,1,1,0,0,1,.37.8l-.28.79a1.88,1.88,0,0,1-1.07.37h-24.1a1,1,0,0,1-.76-.31,1.35,1.35,0,0,1,0-1.71,1,1,0,0,1,.76-.31h3.76Zm-39.6,0h-4.22a1.91,1.91,0,0,1-1.25-.37,1.12,1.12,0,0,1-.46-.89,1.88,1.88,0,0,1,.83-1.35q7.52-5.83,10.92-11.62a70.91,70.91,0,0,0,6-13.49,34,34,0,0,0,2-7.71l.18-4.1a.85.85,0,0,1,.79-.46,1.25,1.25,0,0,1,.86.28.85.85,0,0,1,.31.7V99.43h13.36a1.55,1.55,0,0,1,1.1.37,1.11,1.11,0,0,1,.43.83,1,1,0,0,1-.37.8,1.82,1.82,0,0,1-1.16.37H143.85v83.39c0,2.57.37,4.34,1.07,5.29a2.46,2.46,0,0,0,2.17,1.07c2,0,3.82-1.16,5.35-3.49q3.53-5.18,3.52-16V159a3.41,3.41,0,0,1,.52-2,1.1,1.1,0,0,1,.92-.43,1.08,1.08,0,0,1,.89.43,3.2,3.2,0,0,1,.52,2V169q0,15.14-4.77,21.41c-3.21,4.19-7.19,6.27-12,6.27-4.5,0-7.77-1.22-9.88-3.67-2.84-3.27-4.28-8-4.28-14ZM100,145.4V107.23a8.86,8.86,0,0,0-1.44-5.54,3.32,3.32,0,0,0-2.94-1.35A4.44,4.44,0,0,0,92.2,102a7.87,7.87,0,0,0-1.47,5.2V145.4Zm-9.3,2.42v33.33c0,5.2.58,8.65,1.77,10.31a5,5,0,0,0,4.4,1.9c3.33,0,6.33-1.9,9-5.66q6.51-9.5,7-25.9c.06-3.58.21-5.6.49-6.09a1.27,1.27,0,0,1,1.13-.7,1.14,1.14,0,0,1,1,.52,7.8,7.8,0,0,1,.46,3.42c0,10.61-1.86,19.57-5.6,26.82s-8.78,10.89-15.11,10.89c-5.9,0-10.83-2.78-14.68-8.38s-5.84-17.68-5.84-36.33V138.79q0-21.42,7.89-32.54,5.64-7.89,13.61-7.89c6.33,0,11.22,3.39,14.65,10.12s5.17,15,5.17,24.65v14.68Zm-61.47-46h-2.6a1.16,1.16,0,0,1-.79-.34,1,1,0,0,1-.37-.83,1.12,1.12,0,0,1,.28-.83,1.4,1.4,0,0,1,.89-.37H48a1.25,1.25,0,0,1,1,2,1.58,1.58,0,0,1-1,.37H44.86l8,69.6,9.39-59.85a12.47,12.47,0,0,0,.18-2.23c0-3.64-1.56-6.18-4.65-7.61-.8-.37-1.16-.83-1.16-1.35a.78.78,0,0,1,.24-.64,1,1,0,0,1,.73-.28H69.41a1.24,1.24,0,0,1,.8.24.71.71,0,0,1,.28.58c0,.52-.43,1-1.25,1.35a6.12,6.12,0,0,0-2.78,2.23,20.28,20.28,0,0,0-2,7L52.84,188.06c-.61,4.07-1.1,6.33-1.44,6.82a2.92,2.92,0,0,1-2.32.7H42a1.88,1.88,0,0,1-1.62-.8,51.09,51.09,0,0,1-1.07-6.73Z"/><path class="cls-1" d="M248.41,94.88a2.64,2.64,0,0,1,1.27.33,2.36,2.36,0,0,1,1,1,2.59,2.59,0,0,1,0,2.58,2.4,2.4,0,0,1-1,1,2.59,2.59,0,0,1-2.57,0,2.42,2.42,0,0,1-1-1,2.58,2.58,0,0,1,0-2.58,2.38,2.38,0,0,1,1-1A2.64,2.64,0,0,1,248.41,94.88Zm0,.43a2.2,2.2,0,0,0-1.06.28,2,2,0,0,0-.8.8,2.14,2.14,0,0,0,0,2.15,2,2,0,0,0,.8.8,2.14,2.14,0,0,0,2.14,0,2,2,0,0,0,.8-.8,2.16,2.16,0,0,0,0-2.15,2,2,0,0,0-.81-.8A2.2,2.2,0,0,0,248.41,95.3Zm-1.13,3.58V96.11h1a2.36,2.36,0,0,1,.71.08.69.69,0,0,1,.35.27.71.71,0,0,1,.13.41.74.74,0,0,1-.22.53.86.86,0,0,1-.58.25.76.76,0,0,1,.24.15,3.22,3.22,0,0,1,.41.55l.34.54h-.55l-.25-.44a2.25,2.25,0,0,0-.47-.65.57.57,0,0,0-.36-.1h-.26v1.18Zm.45-1.56h.54a.87.87,0,0,0,.53-.12.4.4,0,0,0,.07-.53.41.41,0,0,0-.19-.14,1.42,1.42,0,0,0-.45,0h-.51Z"/></svg>