<svg xmlns="http://www.w3.org/2000/svg" xmlns:xlink="http://www.w3.org/1999/xlink" viewBox="0 0 285 285"><defs><style>.cls-1{fill:none;}.cls-2{isolation:isolate;}.cls-3{fill:#662912;}.cls-4{clip-path:url(#clip-path);}.cls-5{fill:url(#linear-gradient);}.cls-6{clip-path:url(#clip-path-2);}.cls-7{fill:url(#linear-gradient-2);}.cls-8{clip-path:url(#clip-path-3);}.cls-9{fill:url(#linear-gradient-3);}.cls-10{clip-path:url(#clip-path-4);}.cls-11{fill:url(#radial-gradient);}.cls-12{clip-path:url(#clip-path-5);}.cls-13{fill:url(#linear-gradient-4);}.cls-14{clip-path:url(#clip-path-6);}.cls-15{fill:url(#linear-gradient-5);}.cls-16{mix-blend-mode:multiply;}.cls-17{clip-path:url(#clip-path-7);}.cls-18{fill:#231f20;}.cls-19{clip-path:url(#clip-path-8);}.cls-20{opacity:0.9;mix-blend-mode:overlay;}.cls-21{clip-path:url(#clip-path-9);}.cls-22{clip-path:url(#clip-path-10);}.cls-23{clip-path:url(#clip-path-11);}.cls-24{clip-path:url(#clip-path-12);}.cls-25{fill:#fff;}</style><clipPath id="clip-path"><path class="cls-1" d="M140.7,49c-2.42.32-59.63,7.84-85.92,17.78l-1.27.48v1.4c0,2.77-.47,68.16,7.21,98.84,3.61,14.44,15.06,29.94,32.24,43.66,15.14,12.09,32.92,21.35,47.57,24.77l.43.1.43-.1c14.64-3.42,32.43-12.68,47.56-24.77,17.18-13.72,28.63-29.22,32.24-43.66,7.67-30.68,7.23-96.07,7.21-98.83v-1.4l-1.27-.48c-26.3-9.94-83.5-17.46-85.92-17.78l-.24,0Z"/></clipPath><linearGradient id="linear-gradient" x1="-1312.46" y1="-538.41" x2="-1311.57" y2="-538.41" gradientTransform="matrix(-111.23, -192.65, -192.65, 111.23, -249523.9, -192744.31)" gradientUnits="userSpaceOnUse"><stop offset="0" stop-color="#8b8486"/><stop offset="1" stop-color="#4c4447"/></linearGradient><clipPath id="clip-path-2"><path class="cls-1" d="M55.45,68.68S54.9,136.21,62.59,167s50.32,60.42,78.36,67c28-6.56,70.65-36.19,78.35-67s7.15-98.31,7.15-98.31c-26.39-10-85.5-17.67-85.5-17.67s-59.11,7.7-85.5,17.67"/></clipPath><linearGradient id="linear-gradient-2" x1="-1303.41" y1="-543.01" x2="-1302.56" y2="-543.01" gradientTransform="matrix(201.02, 0, 0, -201.02, 262065.41, -109013.65)" gradientUnits="userSpaceOnUse"><stop offset="0" stop-color="#8b8486"/><stop offset="1" stop-color="#221b20"/></linearGradient><clipPath id="clip-path-3"><path class="cls-1" d="M65.18,76c.11,18,1,65.1,6.83,88.49,2.92,11.67,13.16,25.19,28.07,37.11,12.91,10.3,28.34,18.59,40.87,22,12.53-3.42,28-11.71,40.87-22,14.92-11.92,25.15-25.44,28.07-37.11C215.73,141.07,216.6,94,216.71,76c-24.9-7.69-68-13.75-75.76-14.8-7.76,1.05-50.85,7.1-75.77,14.8"/></clipPath><linearGradient id="linear-gradient-3" x1="-1313.3" y1="-538.48" x2="-1312.41" y2="-538.48" gradientTransform="matrix(-96.65, -167.4, -167.4, 96.65, -216893.74, -167597.71)" gradientUnits="userSpaceOnUse"><stop offset="0" stop-color="#fed307"/><stop offset="1" stop-color="#662912"/></linearGradient><clipPath id="clip-path-4"><path class="cls-1" d="M66.65,77.1c.15,19.48,1.12,64.36,6.77,87,2.84,11.35,12.88,24.58,27.55,36.29,12.66,10.11,27.57,18.18,40,21.64,12.41-3.47,27.32-11.53,40-21.64,14.67-11.71,24.71-24.94,27.55-36.29,5.66-22.62,6.62-67.5,6.77-87-24.64-7.42-65.7-13.23-74.29-14.41-8.6,1.17-49.63,7-74.3,14.41"/></clipPath><radialGradient id="radial-gradient" cx="-1317.32" cy="-544.53" r="0.42" gradientTransform="matrix(231.19, 0, 0, -239.64, 304687.57, -130346.96)" gradientUnits="userSpaceOnUse"><stop offset="0" stop-color="#fcee1f"/><stop offset="0.59" stop-color="#faae1c"/><stop offset="0.67" stop-color="#f3a81d"/><stop offset="0.79" stop-color="#e19621"/><stop offset="0.94" stop-color="#c37a26"/><stop offset="1" stop-color="#b36b29"/></radialGradient><clipPath id="clip-path-5"><polygon class="cls-1" points="50.36 172.33 50.36 202.88 234.64 168.94 234.64 138.4 50.36 172.33"/></clipPath><linearGradient id="linear-gradient-4" x1="-1290.13" y1="-533.45" x2="-1289.23" y2="-533.45" gradientTransform="matrix(24.1, 66.22, 66.22, -24.1, 66552.34, 72716.83)" gradientUnits="userSpaceOnUse"><stop offset="0" stop-color="#8b8486"/><stop offset="0.57" stop-color="#4b4447"/><stop offset="1" stop-color="#221b20"/></linearGradient><clipPath id="clip-path-6"><polygon class="cls-1" points="50.36 173.79 50.36 201.42 234.64 167.49 234.64 139.85 50.36 173.79"/></clipPath><linearGradient id="linear-gradient-5" x1="-1303.66" y1="-542.64" x2="-1302.81" y2="-542.64" gradientTransform="matrix(216.61, 0, 0, -216.61, 282437.47, -117370.22)" xlink:href="#linear-gradient-2"/><clipPath id="clip-path-7"><rect class="cls-1" x="155.04" y="182.57" width="32.98" height="6.08"/></clipPath><clipPath id="clip-path-8"><rect class="cls-1" x="92.8" y="142.27" width="95.21" height="16.73"/></clipPath><clipPath id="clip-path-9"><rect class="cls-1" x="76.42" y="107.78" width="128.16" height="27.68"/></clipPath><clipPath id="clip-path-10"><rect class="cls-1" x="75.87" y="107.4" width="128.15" height="27.68"/></clipPath><clipPath id="clip-path-11"><rect class="cls-1" x="77.14" y="107.78" width="128.15" height="27.68"/></clipPath><clipPath id="clip-path-12"><rect class="cls-1" x="76.59" y="107.4" width="128.16" height="27.68"/></clipPath></defs><title>Webpage logo 285x285px</title><g class="cls-2"><g id="Layer_1" data-name="Layer 1"><polygon class="cls-3" points="91.22 205.48 50.36 202.88 50.36 172.33 91.22 174.94 91.22 205.48"/><polygon class="cls-3" points="234.64 168.94 217.93 162.89 217.93 132.35 234.64 138.4 234.64 168.94"/><g class="cls-4"><polygon class="cls-5" points="96.99 314.94 -25.1 95.74 184.9 -29.94 306.99 189.26 96.99 314.94"/></g><g class="cls-6"><rect class="cls-7" x="54.9" y="51.01" width="172.1" height="182.95"/></g><g class="cls-8"><polygon class="cls-9" points="103.06 291.59 -2.66 101.78 178.83 -6.84 284.56 182.98 103.06 291.59"/></g><g class="cls-10"><rect class="cls-11" x="66.65" y="62.7" width="148.6" height="159.32"/></g><g class="cls-12"><polygon class="cls-13" points="213.08 77.01 254.63 195.34 71.92 264.27 30.37 145.94 213.08 77.01"/></g><g class="cls-14"><rect class="cls-15" x="50.36" y="139.86" width="184.28" height="61.57"/></g><g class="cls-16"><g class="cls-17"><polygon class="cls-18" points="155.04 188.46 188.01 182.57 188.01 188.64 155.04 188.64 155.04 188.46"/></g></g><g class="cls-16"><g class="cls-19"><polygon class="cls-18" points="188.01 142.79 92.8 159 92.8 142.27 188.01 142.27 188.01 142.79"/></g></g><g class="cls-20"><g class="cls-21"><path class="cls-18" d="M82.38,112v4.45H87V119H82.38v10c0,2.3.63,3.61,2.44,3.61a5.88,5.88,0,0,0,1.89-.23l.15,2.53a7.6,7.6,0,0,1-2.89.5A4.45,4.45,0,0,1,80.46,134c-.93-1-1.26-2.65-1.26-4.84V119H76.42v-2.57H79.2V113Z"/><path class="cls-18" d="M90.72,122.25c0-2.19,0-4.07-.15-5.8h2.85l.11,3.65h.15a5.42,5.42,0,0,1,5-4.07,3.4,3.4,0,0,1,.92.11v3.19a4.65,4.65,0,0,0-1.11-.11c-2.3,0-3.92,1.8-4.37,4.34a9.68,9.68,0,0,0-.15,1.58V135H90.72Z"/><path class="cls-18" d="M117.83,130c0,1.92,0,3.61.15,5.07h-2.89l-.19-3h-.07a6.7,6.7,0,0,1-5.92,3.45c-2.82,0-6.19-1.61-6.19-8.14V116.46H106v10.29c0,3.53,1,5.91,4,5.91a4.73,4.73,0,0,0,4.3-3.07,5.13,5.13,0,0,0,.29-1.73v-11.4h3.26Z"/><path class="cls-18" d="M122.79,107.78h5.63v10.71h.07a6.3,6.3,0,0,1,5.48-2.65c4.33,0,7.51,3.72,7.48,9.48,0,6.76-4.15,10.13-8.3,10.13a6,6,0,0,1-5.44-3h-.08l-.22,2.61h-4.78c.08-1.23.15-3.49.15-5.6Zm5.63,19.27a4.4,4.4,0,0,0,.11,1,3.43,3.43,0,0,0,3.29,2.76c2.41,0,3.89-1.92,3.89-5.3,0-2.91-1.26-5.22-3.89-5.22a3.52,3.52,0,0,0-3.29,2.88,5,5,0,0,0-.11,1.07Z"/><path class="cls-18" d="M162,129c0,2.46.07,4.45.15,6h-4.89l-.26-2.65h-.11a6.42,6.42,0,0,1-5.66,3.07c-3.67,0-6.37-2.38-6.37-8.18v-11h5.66v10.1c0,2.73.85,4.38,2.82,4.38a3,3,0,0,0,2.81-2,3.34,3.34,0,0,0,.19-1.27V116.27H162Z"/><path class="cls-18" d="M172.35,111a2.87,2.87,0,0,1-3,2.92,2.94,2.94,0,1,1,0-5.87,2.88,2.88,0,0,1,3,3m-5.81,5.22h5.62V135h-5.62Z"/><rect class="cls-18" x="176.68" y="107.78" width="5.63" height="27.26"/><path class="cls-18" d="M204.42,107.78v21.65c0,2.11.08,4.34.15,5.6h-5l-.26-2.76h-.07a6.27,6.27,0,0,1-5.67,3.18c-4.3,0-7.74-3.8-7.74-9.64,0-6.33,3.78-10,8.11-10,2.22,0,4,.81,4.78,2.11h.07V107.78Zm-5.63,16.43a8.76,8.76,0,0,0-.07-1,3.42,3.42,0,0,0-3.29-2.88c-2.55,0-3.89,2.38-3.89,5.34,0,3.19,1.52,5.18,3.86,5.18a3.32,3.32,0,0,0,3.25-2.8,4.92,4.92,0,0,0,.15-1.34Z"/></g></g><g class="cls-16"><g class="cls-22"><path class="cls-18" d="M81.84,111.63v4.45H86.5v2.57H81.84v10c0,2.3.63,3.61,2.44,3.61a5.81,5.81,0,0,0,1.89-.23l.15,2.54a7.65,7.65,0,0,1-2.89.5,4.46,4.46,0,0,1-3.52-1.46c-.93-1-1.26-2.65-1.26-4.84V118.65H75.87v-2.57h2.78v-3.42Z"/><path class="cls-18" d="M90.17,121.88c0-2.19,0-4.07-.15-5.8h2.85l.11,3.65h.15a5.41,5.41,0,0,1,5-4.07,3.34,3.34,0,0,1,.92.12V119a4.86,4.86,0,0,0-1.11-.11c-2.3,0-3.93,1.8-4.37,4.34a9.15,9.15,0,0,0-.15,1.57v9.9H90.17Z"/><path class="cls-18" d="M117.28,129.59c0,1.92,0,3.61.15,5.07h-2.89l-.19-3h-.07a6.7,6.7,0,0,1-5.92,3.46c-2.81,0-6.19-1.61-6.19-8.14V116.08h3.26v10.29c0,3.53,1,5.92,4,5.92a4.72,4.72,0,0,0,4.3-3.07,5.11,5.11,0,0,0,.3-1.73v-11.4h3.26Z"/><path class="cls-18" d="M122.25,107.4h5.63v10.71H128a6.29,6.29,0,0,1,5.48-2.65c4.34,0,7.53,3.72,7.49,9.48,0,6.76-4.15,10.14-8.3,10.14a5.94,5.94,0,0,1-5.44-3h-.08l-.22,2.61H122.1c.07-1.23.15-3.49.15-5.6Zm5.63,19.27a4.64,4.64,0,0,0,.11,1,3.44,3.44,0,0,0,3.3,2.76c2.41,0,3.89-1.92,3.89-5.3,0-2.92-1.26-5.22-3.89-5.22a3.53,3.53,0,0,0-3.3,2.88,5.31,5.31,0,0,0-.11,1.07Z"/><path class="cls-18" d="M161.47,128.63c0,2.46.08,4.45.14,6h-4.89l-.26-2.65h-.11a6.41,6.41,0,0,1-5.67,3.07c-3.67,0-6.37-2.38-6.37-8.18v-11H150V126c0,2.72.84,4.38,2.81,4.38a3,3,0,0,0,2.81-2,3.35,3.35,0,0,0,.18-1.27V115.89h5.67Z"/><path class="cls-18" d="M171.81,110.67a2.88,2.88,0,0,1-3,2.92,2.94,2.94,0,1,1,0-5.87,2.88,2.88,0,0,1,3,3M166,115.89h5.63v18.77H166Z"/><rect class="cls-18" x="176.14" y="107.4" width="5.63" height="27.26"/><path class="cls-18" d="M203.88,107.4v21.66c0,2.11.07,4.34.15,5.6h-5l-.26-2.76h-.07a6.28,6.28,0,0,1-5.66,3.19c-4.3,0-7.74-3.8-7.74-9.63,0-6.34,3.78-10,8.11-10,2.22,0,4,.8,4.77,2.11h.08V107.4Zm-5.63,16.43a8.89,8.89,0,0,0-.08-1,3.42,3.42,0,0,0-3.3-2.88c-2.56,0-3.89,2.38-3.89,5.33,0,3.19,1.52,5.18,3.85,5.18a3.33,3.33,0,0,0,3.26-2.8,5.05,5.05,0,0,0,.15-1.34Z"/></g></g><g class="cls-20"><g class="cls-23"><path class="cls-18" d="M83.1,112v4.45h4.67V119H83.1v10c0,2.3.63,3.61,2.45,3.61a5.88,5.88,0,0,0,1.88-.23l.15,2.53a7.59,7.59,0,0,1-2.89.5A4.45,4.45,0,0,1,81.18,134c-.93-1-1.26-2.65-1.26-4.84V119H77.14v-2.57h2.77V113Z"/><path class="cls-18" d="M91.44,122.25c0-2.19,0-4.07-.15-5.8h2.85l.11,3.65h.15a5.41,5.41,0,0,1,5-4.07,3.47,3.47,0,0,1,.92.11v3.19a4.65,4.65,0,0,0-1.11-.11c-2.3,0-3.93,1.8-4.37,4.34a10.53,10.53,0,0,0-.15,1.58V135H91.44Z"/><path class="cls-18" d="M118.55,130c0,1.92,0,3.61.15,5.07h-2.89l-.18-3h-.08a6.7,6.7,0,0,1-5.92,3.45c-2.82,0-6.19-1.61-6.19-8.14V116.46h3.26v10.29c0,3.53,1,5.91,4,5.91a4.71,4.71,0,0,0,4.29-3.07,5,5,0,0,0,.3-1.73v-11.4h3.26Z"/><path class="cls-18" d="M123.52,107.78h5.63v10.71h.07a6.3,6.3,0,0,1,5.48-2.65c4.33,0,7.52,3.72,7.48,9.48,0,6.76-4.15,10.13-8.3,10.13a6,6,0,0,1-5.44-3h-.07l-.22,2.61h-4.77c.07-1.23.15-3.49.15-5.6Zm5.63,19.27a4.36,4.36,0,0,0,.11,1,3.44,3.44,0,0,0,3.3,2.76c2.41,0,3.89-1.92,3.89-5.3,0-2.91-1.26-5.22-3.89-5.22a3.53,3.53,0,0,0-3.3,2.88,5,5,0,0,0-.11,1.07Z"/><path class="cls-18" d="M162.74,129c0,2.46.08,4.45.15,6H158l-.26-2.65h-.11a6.42,6.42,0,0,1-5.67,3.07c-3.67,0-6.37-2.38-6.37-8.18v-11h5.67v10.1c0,2.73.85,4.38,2.81,4.38a3,3,0,0,0,2.82-2,3.31,3.31,0,0,0,.19-1.27V116.27h5.66Z"/><path class="cls-18" d="M173.07,111a2.87,2.87,0,0,1-3,2.92,2.94,2.94,0,1,1,0-5.87,2.87,2.87,0,0,1,3,3m-5.81,5.22h5.63V135h-5.63Z"/><rect class="cls-18" x="177.41" y="107.78" width="5.63" height="27.26"/><path class="cls-18" d="M205.15,107.78v21.65c0,2.11.07,4.34.15,5.6h-5l-.26-2.76H200a6.27,6.27,0,0,1-5.67,3.18c-4.3,0-7.74-3.8-7.74-9.64,0-6.33,3.78-10,8.11-10,2.22,0,4,.81,4.78,2.11h.07V107.78Zm-5.63,16.43a9.3,9.3,0,0,0-.07-1,3.42,3.42,0,0,0-3.3-2.88c-2.56,0-3.89,2.38-3.89,5.34,0,3.19,1.52,5.18,3.85,5.18a3.33,3.33,0,0,0,3.26-2.8,5.07,5.07,0,0,0,.15-1.34Z"/></g></g><g class="cls-16"><g class="cls-24"><path class="cls-18" d="M82.56,111.63v4.45h4.67v2.57H82.56v10c0,2.3.63,3.61,2.44,3.61a5.81,5.81,0,0,0,1.89-.23l.15,2.54a7.61,7.61,0,0,1-2.89.5,4.45,4.45,0,0,1-3.52-1.46c-.93-1-1.26-2.65-1.26-4.84V118.65H76.59v-2.57h2.78v-3.42Z"/><path class="cls-18" d="M90.89,121.88c0-2.19,0-4.07-.15-5.8H93.6l.11,3.65h.15a5.42,5.42,0,0,1,5-4.07,3.37,3.37,0,0,1,.93.12V119a4.89,4.89,0,0,0-1.11-.11c-2.3,0-3.93,1.8-4.37,4.34a10,10,0,0,0-.15,1.57v9.9H90.89Z"/><path class="cls-18" d="M118,129.59c0,1.92,0,3.61.15,5.07h-2.89l-.18-3H115a6.72,6.72,0,0,1-5.93,3.46c-2.82,0-6.19-1.61-6.19-8.14V116.08h3.26v10.29c0,3.53,1,5.92,4,5.92a4.73,4.73,0,0,0,4.3-3.07,5.17,5.17,0,0,0,.3-1.73v-11.4H118Z"/><path class="cls-18" d="M123,107.4h5.63v10.71h.07a6.3,6.3,0,0,1,5.48-2.65c4.34,0,7.52,3.72,7.48,9.48,0,6.76-4.15,10.14-8.3,10.14a6,6,0,0,1-5.44-3h-.08l-.22,2.61h-4.78c.08-1.23.15-3.49.15-5.6Zm5.63,19.27a4.34,4.34,0,0,0,.12,1,3.43,3.43,0,0,0,3.3,2.76c2.4,0,3.89-1.92,3.89-5.3,0-2.92-1.26-5.22-3.89-5.22a3.52,3.52,0,0,0-3.3,2.88,5,5,0,0,0-.12,1.07Z"/><path class="cls-18" d="M162.19,128.63c0,2.46.08,4.45.15,6h-4.89l-.26-2.65h-.11a6.42,6.42,0,0,1-5.67,3.07c-3.67,0-6.37-2.38-6.37-8.18v-11h5.67V126c0,2.72.85,4.38,2.82,4.38a3,3,0,0,0,2.81-2,3.33,3.33,0,0,0,.19-1.27V115.89h5.66Z"/><path class="cls-18" d="M172.53,110.67a2.87,2.87,0,0,1-3,2.92,2.94,2.94,0,1,1,0-5.87,2.87,2.87,0,0,1,3,3m-5.81,5.22h5.63v18.77h-5.63Z"/><rect class="cls-18" x="176.86" y="107.4" width="5.63" height="27.26"/><path class="cls-18" d="M204.6,107.4v21.66c0,2.11.07,4.34.15,5.6h-5l-.26-2.76h-.07a6.27,6.27,0,0,1-5.66,3.19c-4.3,0-7.74-3.8-7.74-9.63,0-6.34,3.78-10,8.11-10,2.22,0,4,.8,4.78,2.11H199V107.4ZM199,123.83a9.67,9.67,0,0,0-.08-1,3.42,3.42,0,0,0-3.29-2.88c-2.56,0-3.89,2.38-3.89,5.33,0,3.19,1.52,5.18,3.85,5.18a3.33,3.33,0,0,0,3.26-2.8,5.33,5.33,0,0,0,.14-1.34Z"/></g></g><path class="cls-25" d="M77.51,187.44a7,7,0,0,1-.31,1.14,3.18,3.18,0,0,1-.52.91,2.77,2.77,0,0,1-.81.66,4.23,4.23,0,0,1-1.2.39,5.67,5.67,0,0,1-.73.09,4.76,4.76,0,0,1-.66,0l-.11-2.13.42,0a2.72,2.72,0,0,0,.4,0,1.12,1.12,0,0,0,.78-.42,2.1,2.1,0,0,0,.3-.83l.13-.66-4.49-6.81,2.74-.5L76,183.77h0l.61-5.1,2.62-.48Z"/><path class="cls-25" d="M88.57,180.33a4.08,4.08,0,0,1,0,1.73,3.69,3.69,0,0,1-.67,1.43,4.17,4.17,0,0,1-1.18,1,4.71,4.71,0,0,1-3.22.59,4,4,0,0,1-1.47-.56,3.79,3.79,0,0,1-1.13-1.1,4.38,4.38,0,0,1-.61-3.33,3.75,3.75,0,0,1,.67-1.42,3.92,3.92,0,0,1,1.18-1,4.82,4.82,0,0,1,1.55-.56,4.68,4.68,0,0,1,1.66,0,4,4,0,0,1,1.47.54,3.76,3.76,0,0,1,1.13,1.08A4.11,4.11,0,0,1,88.57,180.33Zm-2.38.44a2.18,2.18,0,0,0-.25-.69,1.91,1.91,0,0,0-.46-.55,1.78,1.78,0,0,0-.64-.33,1.65,1.65,0,0,0-.8,0,1.68,1.68,0,0,0-1.21.84,1.91,1.91,0,0,0-.22.67,2.27,2.27,0,0,0,0,.73,2.31,2.31,0,0,0,.25.69,1.91,1.91,0,0,0,.45.56A1.71,1.71,0,0,0,84,183a1.75,1.75,0,0,0,.8,0,1.68,1.68,0,0,0,1.21-.85,2,2,0,0,0,.22-.69A2.31,2.31,0,0,0,86.19,180.77Z"/><path class="cls-25" d="M95.48,183l-.19-1h0a2.27,2.27,0,0,1-.26.55,2.48,2.48,0,0,1-.44.49,3.24,3.24,0,0,1-.6.39,3,3,0,0,1-2,.21,2.52,2.52,0,0,1-1-.55,2.69,2.69,0,0,1-.65-.9,4.43,4.43,0,0,1-.35-1.1l-.85-4.64,2.49-.45.75,4.07a4.38,4.38,0,0,0,.16.59,1.51,1.51,0,0,0,.27.48.93.93,0,0,0,.41.29,1,1,0,0,0,.58,0,1.15,1.15,0,0,0,.9-.67,2,2,0,0,0,.13-1.19L94,175.48l2.48-.45,1.38,7.51Z"/><path class="cls-25" d="M110.62,176.28a4.71,4.71,0,0,1,0,1.55,3.86,3.86,0,0,1-.47,1.4,3.49,3.49,0,0,1-1,1.09,3.42,3.42,0,0,1-1.45.61,3.46,3.46,0,0,1-1.48,0,2.38,2.38,0,0,1-1.19-.69h0l.18,1-2.28.42-2.09-11.4,2.47-.45.86,4.69h0a3.21,3.21,0,0,1,.76-.85,2.92,2.92,0,0,1,1.35-.58,3.36,3.36,0,0,1,2.8.7,4,4,0,0,1,.94,1.13A4.61,4.61,0,0,1,110.62,176.28Zm-2.38.44A2.26,2.26,0,0,0,108,176a1.78,1.78,0,0,0-1.09-.87,1.71,1.71,0,0,0-.8,0,1.65,1.65,0,0,0-.72.3,1.78,1.78,0,0,0-.48.54,1.94,1.94,0,0,0-.25.68,2.08,2.08,0,0,0,0,.74,2.14,2.14,0,0,0,.26.68,2.07,2.07,0,0,0,.47.55,1.89,1.89,0,0,0,.65.33,1.71,1.71,0,0,0,.79,0,1.74,1.74,0,0,0,.74-.31,1.78,1.78,0,0,0,.48-.54,1.87,1.87,0,0,0,.23-.69A2.4,2.4,0,0,0,108.24,176.72Z"/><path class="cls-25" d="M117.53,178.93l-.19-1h0a2.25,2.25,0,0,1-.27.55,2.32,2.32,0,0,1-.44.48,3.27,3.27,0,0,1-.6.39,2.64,2.64,0,0,1-.73.24,2.83,2.83,0,0,1-1.32,0,2.57,2.57,0,0,1-1-.55,2.79,2.79,0,0,1-.64-.9A4.29,4.29,0,0,1,112,177l-.86-4.64,2.49-.46.75,4.07a4.27,4.27,0,0,0,.16.59,1.5,1.5,0,0,0,.27.48.94.94,0,0,0,.4.29,1.05,1.05,0,0,0,.58,0,1.15,1.15,0,0,0,.9-.67,1.92,1.92,0,0,0,.13-1.19l-.74-4.06,2.47-.45,1.38,7.51Z"/><path class="cls-25" d="M122.41,167.79a1.34,1.34,0,0,1,0,.55,1.45,1.45,0,0,1-1.15,1.06,1.41,1.41,0,0,1-1.08-.22,1.37,1.37,0,0,1-.57-1.42,1.27,1.27,0,0,1,.22-.48,1.65,1.65,0,0,1,.4-.38,1.33,1.33,0,0,1,.54-.22,1.47,1.47,0,0,1,.57,0,1.4,1.4,0,0,1,.51.2,1.49,1.49,0,0,1,.38.37A1.3,1.3,0,0,1,122.41,167.79Zm-.84,10.39-1.38-7.51,2.47-.45,1.38,7.51Z"/><path class="cls-25" d="M125.73,177.42,123.64,166l2.52-.46,2.09,11.4Z"/><path class="cls-25" d="M135.58,175.61l-.18-1h0a2.36,2.36,0,0,1-.87,1.07,3.45,3.45,0,0,1-1.37.57,3.38,3.38,0,0,1-1.57-.05,3.54,3.54,0,0,1-1.28-.68,4,4,0,0,1-.94-1.15,4.78,4.78,0,0,1-.52-1.46,4.5,4.5,0,0,1,0-1.54,4,4,0,0,1,.48-1.39,3.35,3.35,0,0,1,2.37-1.65,2.94,2.94,0,0,1,1.46.06,3.13,3.13,0,0,1,1,.53h0l-.86-4.69,2.48-.45,2.09,11.4Zm-.78-3.75a2,2,0,0,0-.26-.69,2,2,0,0,0-.47-.55,1.79,1.79,0,0,0-.65-.33,1.65,1.65,0,0,0-.79,0,1.69,1.69,0,0,0-.74.31,1.72,1.72,0,0,0-.48.53,1.9,1.9,0,0,0-.23.67,2.43,2.43,0,0,0,0,.73,2.63,2.63,0,0,0,.25.7,1.86,1.86,0,0,0,.45.56,1.74,1.74,0,0,0,.64.34,1.72,1.72,0,0,0,.8,0,1.69,1.69,0,0,0,.72-.3,1.82,1.82,0,0,0,.48-.54,2,2,0,0,0,.25-.69A2,2,0,0,0,134.79,171.86Z"/><path class="cls-25" d="M141.22,176.51l-2,.37.34-4.49,2.37-.44Z"/><path class="cls-25" d="M156.31,171.81l-2.49.45-2.34-4.4h0l-.59,4.94-2.49.45-4-7,2.67-.49,2.17,4.51h0l.47-5,2.48-.46,2.26,4.49h0l.44-5,2.56-.47Z"/><path class="cls-25" d="M166.35,166.18l.05.3a1.86,1.86,0,0,1,0,.29l-5.44,1a1.36,1.36,0,0,0,.29.54,1.65,1.65,0,0,0,.49.37,2.08,2.08,0,0,0,1.27.18,2.12,2.12,0,0,0,1-.4,1.94,1.94,0,0,0,.55-.69l1.92.77A3.51,3.51,0,0,1,165.3,170a4.64,4.64,0,0,1-1.93.79,5,5,0,0,1-1.65,0,4,4,0,0,1-1.46-.53,3.58,3.58,0,0,1-1.11-1.08,4.15,4.15,0,0,1-.63-1.63,4.2,4.2,0,0,1,0-1.72,3.75,3.75,0,0,1,.63-1.43,4,4,0,0,1,1.13-1,4.48,4.48,0,0,1,1.54-.58,4.14,4.14,0,0,1,1.57,0,3.45,3.45,0,0,1,1.34.59,3.85,3.85,0,0,1,1,1.14A5,5,0,0,1,166.35,166.18Zm-2.45-.53a1.5,1.5,0,0,0-.56-.94,1.42,1.42,0,0,0-1.18-.22,1.91,1.91,0,0,0-.64.23,1.64,1.64,0,0,0-.47.41,1.51,1.51,0,0,0-.28.53,1.32,1.32,0,0,0,0,.58Z"/><path class="cls-25" d="M179.38,163.66a4.77,4.77,0,0,1,0,1.55,3.91,3.91,0,0,1-.47,1.41,3.59,3.59,0,0,1-1,1.09,3.42,3.42,0,0,1-1.45.61,3.23,3.23,0,0,1-1.36,0,2.36,2.36,0,0,1-1.11-.58h0l.81,4.45-2.47.45-2-11.13,2.35-.43.17.92h0a3.18,3.18,0,0,1,.81-1,3,3,0,0,1,1.38-.6,3.38,3.38,0,0,1,2.82.7,4,4,0,0,1,.94,1.13A4.57,4.57,0,0,1,179.38,163.66Zm-2.4.44a2.25,2.25,0,0,0-.24-.69,1.89,1.89,0,0,0-.44-.55,1.66,1.66,0,0,0-.63-.33,1.71,1.71,0,0,0-.79,0,1.66,1.66,0,0,0-.73.31,1.74,1.74,0,0,0-.48.54,2.09,2.09,0,0,0,.49,2.65,1.84,1.84,0,0,0,.65.33,1.65,1.65,0,0,0,.78,0,1.68,1.68,0,0,0,.74-.3,1.56,1.56,0,0,0,.47-.54,1.94,1.94,0,0,0,.22-.69A2.4,2.4,0,0,0,177,164.1Z"/><path class="cls-25" d="M185.19,160.85a2.1,2.1,0,0,0-.34,0l-.31,0a1.8,1.8,0,0,0-.8.34,1.74,1.74,0,0,0-.46.53,1.76,1.76,0,0,0-.2.61,2,2,0,0,0,0,.54l.71,3.85-2.47.45-1.38-7.5,2.38-.44.2,1.09h0a2.49,2.49,0,0,1,.64-1.09,2.13,2.13,0,0,1,1.16-.59l.3,0a1,1,0,0,1,.24,0Z"/><path class="cls-25" d="M194,161a4.08,4.08,0,0,1,0,1.72,3.87,3.87,0,0,1-.67,1.43,4.26,4.26,0,0,1-1.18,1,4.71,4.71,0,0,1-3.22.59,4,4,0,0,1-1.47-.56,3.87,3.87,0,0,1-1.13-1.1,4.17,4.17,0,0,1-.64-1.6,4.08,4.08,0,0,1,0-1.72,3.74,3.74,0,0,1,.67-1.41,3.93,3.93,0,0,1,1.18-1,5,5,0,0,1,3.22-.59,4.12,4.12,0,0,1,1.47.54,3.81,3.81,0,0,1,1.13,1.08A4,4,0,0,1,194,161Zm-2.38.44a2.2,2.2,0,0,0-.25-.69,1.93,1.93,0,0,0-.46-.55,1.77,1.77,0,0,0-.64-.33,1.69,1.69,0,0,0-.8,0,1.66,1.66,0,0,0-.73.31,1.63,1.63,0,0,0-.47.53,1.91,1.91,0,0,0-.22.67,2.25,2.25,0,0,0,0,.73,2.39,2.39,0,0,0,.24.69,2,2,0,0,0,.46.56,1.64,1.64,0,0,0,1.44.37,1.7,1.7,0,0,0,.74-.31,1.67,1.67,0,0,0,.48-.55,2,2,0,0,0,.22-.69A2.4,2.4,0,0,0,191.61,161.42Z"/><path class="cls-25" d="M197.59,158.37l.53,2.87a1.32,1.32,0,0,0,.35.76.89.89,0,0,0,.78.13,2.46,2.46,0,0,0,.38-.1,1.34,1.34,0,0,0,.33-.15l.36,1.8a3.83,3.83,0,0,1-.62.28,4.6,4.6,0,0,1-.77.21,3.81,3.81,0,0,1-1.3,0,2,2,0,0,1-.92-.39,2.2,2.2,0,0,1-.6-.76,4.18,4.18,0,0,1-.34-1.07l-.58-3.17L194,159l-.34-1.84,1.19-.22-.37-2,2.43-.45.36,2,1.76-.32.34,1.84Z"/><path class="cls-25" d="M208,158.53l.05.3a2.54,2.54,0,0,1,0,.29l-5.44,1a1.37,1.37,0,0,0,.29.54,1.59,1.59,0,0,0,.49.37,2,2,0,0,0,1.27.18,2.1,2.1,0,0,0,1-.4,2,2,0,0,0,.56-.69l1.92.77a3.59,3.59,0,0,1-1.18,1.44,4.71,4.71,0,0,1-1.94.78,5,5,0,0,1-1.65,0,4,4,0,0,1-1.46-.53,3.6,3.6,0,0,1-1.12-1.08,4.62,4.62,0,0,1-.62-3.35,3.78,3.78,0,0,1,.63-1.42,4,4,0,0,1,1.13-1,4.53,4.53,0,0,1,1.55-.58,4.12,4.12,0,0,1,1.57,0,3.41,3.41,0,0,1,1.34.59,3.83,3.83,0,0,1,1,1.14A5,5,0,0,1,208,158.53Zm-2.45-.54a1.51,1.51,0,0,0-.55-.94,1.41,1.41,0,0,0-1.19-.22,2,2,0,0,0-.64.24,1.6,1.6,0,0,0-.47.41,1.51,1.51,0,0,0-.28.53,1.34,1.34,0,0,0-.05.58Z"/><path class="cls-25" d="M214.19,155.93a1.51,1.51,0,0,0-.65-.33,1.8,1.8,0,0,0-.77,0,1.59,1.59,0,0,0-.68.29,1.72,1.72,0,0,0-.46.52,2,2,0,0,0-.24.68,2.08,2.08,0,0,0,0,.76,2.2,2.2,0,0,0,.26.72,1.83,1.83,0,0,0,.47.55,1.66,1.66,0,0,0,.63.31,1.76,1.76,0,0,0,.76,0,2.13,2.13,0,0,0,.72-.28,1.47,1.47,0,0,0,.52-.53l1.68,1.42a3.28,3.28,0,0,1-1.07.93,4.9,4.9,0,0,1-1.52.55,5.09,5.09,0,0,1-1.72,0,3.89,3.89,0,0,1-1.48-.54,3.81,3.81,0,0,1-1.13-1.1,4.53,4.53,0,0,1-.61-3.33,3.8,3.8,0,0,1,.66-1.42,4.07,4.07,0,0,1,1.19-1,4.81,4.81,0,0,1,1.6-.58,4.22,4.22,0,0,1,.82-.07,5.37,5.37,0,0,1,.81.06,3.54,3.54,0,0,1,.74.19,2.71,2.71,0,0,1,.61.32Z"/><path class="cls-25" d="M218.86,154.47l.53,2.87a1.31,1.31,0,0,0,.35.76.88.88,0,0,0,.78.13,3.06,3.06,0,0,0,.38-.1,1.34,1.34,0,0,0,.32-.15l.36,1.8a3.86,3.86,0,0,1-.62.28,4.21,4.21,0,0,1-.77.21,3.74,3.74,0,0,1-1.3,0,2,2,0,0,1-.92-.39,2.16,2.16,0,0,1-.6-.76,4,4,0,0,1-.34-1.07l-.58-3.18-1.21.22-.34-1.84,1.19-.22-.36-2,2.43-.45.36,2,1.76-.32.33,1.84Z"/><path class="cls-18" d="M199.25,104.71a2.12,2.12,0,0,1,.17-.86,2.25,2.25,0,0,1,1.18-1.18,2.2,2.2,0,0,1,1.72,0,2.25,2.25,0,0,1,1.18,1.18,2.19,2.19,0,0,1,0,1.72,2.25,2.25,0,0,1-1.18,1.18,2.19,2.19,0,0,1-1.72,0,2.25,2.25,0,0,1-1.18-1.18A2.12,2.12,0,0,1,199.25,104.71Zm.39,0a1.79,1.79,0,0,0,.14.71,1.81,1.81,0,0,0,1,1,1.83,1.83,0,0,0,1.42,0,1.81,1.81,0,0,0,1-1,1.83,1.83,0,0,0,0-1.42,1.81,1.81,0,0,0-1-1,1.82,1.82,0,0,0-1.42,0,1.81,1.81,0,0,0-1,1A1.79,1.79,0,0,0,199.64,104.71Zm1-1.28h1a1,1,0,0,1,.68.2.73.73,0,0,1,.22.57.67.67,0,0,1-.17.5.71.71,0,0,1-.43.2l.66,1.07H202l-.63-1h-.34v1h-.46Zm.46,1.1h.55a.64.64,0,0,0,.19,0,.33.33,0,0,0,.14-.11.39.39,0,0,0,0-.39.33.33,0,0,0-.14-.11.6.6,0,0,0-.19,0h-.55Z"/></g></g></svg>