<svg id="Layer_1" data-name="Layer 1" xmlns="http://www.w3.org/2000/svg" viewBox="0 0 285 285"><defs><style>.cls-1{fill:#0d61ae;}.cls-2{fill:#231f20;}</style></defs><title>Webpage logo 285x285px</title><path class="cls-1" d="M46.83,129v9.39h21v15.21h-21v24H25.5V113.82H67.81V129Z"/><path class="cls-1" d="M72.71,113.82H94v63.85H72.71Z"/><path class="cls-1" d="M141.2,177.67H98.92V113.82h21.2v48.64H141.2Z"/><path class="cls-1" d="M188.37,177.67H146.09V113.82h21.2v48.64h21.08Z"/><polygon class="cls-1" points="218.85 132.61 207.2 113.82 204.89 113.82 217.7 134.47 218.85 132.61"/><polygon class="cls-1" points="212.44 142.94 194.38 113.82 192.38 113.82 211.44 144.54 212.44 142.94"/><polygon class="cls-1" points="216.72 136.05 202.93 113.82 200.62 113.82 215.56 137.91 216.72 136.05"/><polygon class="cls-1" points="214.58 139.5 198.65 113.82 196.35 113.82 213.43 141.35 214.58 139.5"/><polygon class="cls-1" points="225.22 122.34 219.94 113.82 217.72 113.82 224.11 124.13 225.22 122.34"/><polygon class="cls-1" points="223.13 125.72 215.75 113.82 213.44 113.82 221.98 127.58 223.13 125.72"/><polygon class="cls-1" points="220.99 129.16 211.47 113.82 209.17 113.82 219.84 131.02 220.99 129.16"/><polygon class="cls-1" points="235.11 155.63 248.78 177.68 251.09 177.68 236.26 153.78 235.11 155.63"/><polygon class="cls-1" points="237.25 152.19 253.05 177.68 255.36 177.68 238.4 150.33 237.25 152.19"/><polygon class="cls-1" points="232.97 159.08 244.51 177.68 246.81 177.68 234.12 157.22 232.97 159.08"/><polygon class="cls-1" points="239.38 148.75 257.33 177.68 259.56 177.68 240.5 146.95 239.38 148.75"/><polygon class="cls-1" points="226.72 169.15 232.01 177.68 233.99 177.68 227.71 167.55 226.72 169.15"/><polygon class="cls-1" points="230.83 162.52 240.23 177.68 242.54 177.68 231.99 160.66 230.83 162.52"/><polygon class="cls-1" points="228.7 165.97 235.96 177.68 238.26 177.68 229.85 164.11 228.7 165.97"/><polygon class="cls-1" points="219.94 177.68 192.38 177.68 232.01 113.82 259.56 113.82 219.94 177.68"/><path class="cls-2" d="M253.17,111.91V108.5h-1.3v-.59h3.27v.59h-1.31v3.41Zm2.42,0v-4h1l1,3.2,1-3.2h1v4h-.61v-3.36l-1,3.36h-.6l-1.08-3.41v3.41Z"/></svg>