<svg id="Layer_1" data-name="Layer 1" xmlns="http://www.w3.org/2000/svg" xmlns:xlink="http://www.w3.org/1999/xlink" viewBox="0 0 285 285"><defs><style>.cls-1{fill:none;}.cls-2{clip-path:url(#clip-path);}.cls-3{fill:url(#linear-gradient);}.cls-4{fill:#4a3377;fill-rule:evenodd;}.cls-5{fill:#231f20;}</style><clipPath id="clip-path"><path class="cls-1" d="M445.7-256c-2.42.32-59.63,7.84-85.92,17.78l-1.27.48v1.4c0,2.77-.47,68.16,7.21,98.83,3.61,14.44,15.06,29.94,32.24,43.66,15.14,12.09,32.92,21.35,47.57,24.77l.43.1.43-.1C461-72.5,478.8-81.76,493.94-93.84c17.18-13.72,28.63-29.22,32.24-43.66,7.67-30.68,7.23-96.07,7.21-98.83v-1.4l-1.27-.48c-26.3-9.94-83.5-17.46-85.92-17.78l-.24,0Z"/></clipPath><linearGradient id="linear-gradient" x1="-1007.46" y1="-843.41" x2="-1006.57" y2="-843.41" gradientTransform="matrix(-111.23, -192.65, -192.65, 111.23, -274053.25, -100366.12)" gradientUnits="userSpaceOnUse"><stop offset="0" stop-color="#8b8486"/><stop offset="1" stop-color="#4c4447"/></linearGradient></defs><title>Webpage logo 285x285px</title><g class="cls-2"><polygon class="cls-3" points="401.99 9.94 279.9 -209.26 489.9 -334.94 611.99 -115.74 401.99 9.94"/></g><path class="cls-4" d="M39.11,121.21H52.71L65.9,167.5H54.08l-2.55-8.09H39.82l-2.5,8.09H25.5l13.61-46.29ZM49.21,149h0l-3.15-12.4L42.43,149Z"/><polygon class="cls-4" points="73.93 121.21 89.97 121.21 93.66 147.2 97.58 121.21 113.62 121.21 118.31 167.5 106.96 167.5 103.99 142.26 100.37 167.5 87.18 167.5 83.38 142.26 80.64 167.5 69.29 167.5 73.93 121.21"/><path class="cls-4" d="M125.09,121.21h19.43c7.72,0,13.31,3.35,13.31,14.86,0,11-3.39,12.65-6.42,13.91l7.49,17.52H145.77l-5.59-16.38-3.56-.88V167.5H125.09V121.21ZM143,141h0c3,0,3.21-1.64,3.21-4.93,0-2.78-.59-4.43-3.21-4.43h-6.36V141Z"/><path class="cls-4" d="M180.65,120.89c10.28,0,18,2.09,18,23.78,0,20.43-7.31,23.08-18,23.08s-18-2-18-23.08c0-21.69,8-23.78,18-23.78Zm0,35.86h0c5.11,0,6.48-2.28,6.48-12.08,0-10.75-1.07-12.77-6.48-12.77-5.23,0-6.48,1.45-6.48,12.77C174.17,154.34,174.83,156.75,180.65,156.75Z"/><polygon class="cls-4" points="213.39 121.21 220.58 152.45 225.99 121.21 238.11 121.21 235.91 130.82 241.97 152.45 247.38 121.21 259.5 121.21 248.86 167.5 234.96 167.5 230.98 152.38 227.47 167.5 213.57 167.5 201.27 121.21 213.39 121.21"/><path class="cls-5" d="M252.86,120.21v-3.56H251.5V116h3.42v.62h-1.37v3.56Zm2.53,0V116h1l1.06,3.34,1-3.34h1v4.18h-.64V116.7l-1.08,3.51h-.63L256,116.64v3.56Z"/></svg>