<svg id="Layer_1" data-name="Layer 1" xmlns="http://www.w3.org/2000/svg" viewBox="0 0 285 285"><defs><style>.cls-1{fill:#eb2127;}.cls-2{fill:#2a3b8f;}.cls-3{fill:#231f20;}</style></defs><title>Webpage logo 285x285px</title><path class="cls-1" d="M35.44,149.45q-9.94,0-9.94-9,0-8.86,9.94-8.87H48.36v8H35.44q-2,0-2,.91,0,1.07,2,1.07h6q9.94,0,9.94,8.86,0,9-9.94,9H28.48v-7.95H41.4c1.32,0,2-.36,2-1.07s-.66-.92-2-.92Z"/><path class="cls-1" d="M91.53,151.46h7.95v7.95H83.58V131.58h8Z"/><path class="cls-1" d="M105.59,159.4l-9.94-27.82h8l6,15.9,6-15.9h8l-9.94,27.82Z"/><path class="cls-2" d="M212.46,145.48v13.91h-8V131.56h8l9.94,13.92V131.56h8v27.83h-8Z"/><path class="cls-2" d="M233.65,159.39V131.56h13.91q11.93,0,11.93,13.92t-11.93,13.91Zm8-19.88v11.93h6q4,0,4-6t-4-6Z"/><path class="cls-1" d="M79.84,151.65q0,4.06-1.88,5.89t-6,1.84H62q-4.16,0-6-1.84t-1.88-5.89V139.29q0-4.06,1.88-5.89t6-1.84h9.91q4.16,0,6,1.84t1.88,5.89Zm-8-10.52q0-1.6-2-1.6H64.11q-2,0-2,1.6v8.54q0,1.6,2,1.6h5.74q2,0,2-1.6Z"/><path class="cls-2" d="M201.33,151.65q0,4.06-1.88,5.89t-6,1.84h-9.9q-4.16,0-6-1.84t-1.88-5.89V139.29q0-4.06,1.88-5.89t6-1.84h9.9q4.16,0,6,1.84t1.88,5.89Zm-8-10.52q0-1.6-2-1.6h-5.74q-2,0-2,1.6v8.54q0,1.6,2,1.6h5.74q2,0,2-1.6Z"/><path class="cls-1" d="M149.92,151.66q0,4.05-1.88,5.89t-6,1.83h-9.9q-4.16,0-6-1.83t-1.88-5.89V139.3q0-4.05,1.88-5.89t6-1.83H142q4.16,0,6,1.83t1.88,5.89Zm-8-10.51q0-1.6-2-1.6H134.2q-2,0-2,1.6v8.54q0,1.6,2,1.6h5.73q2,0,2-1.6Z"/><path class="cls-2" d="M169.12,143.49a7.19,7.19,0,0,0,1.63-4.33,6.77,6.77,0,0,0-1.13-3.62q-2.49-4-8.45-4H150.09l-3.58,0,.8.09a6.55,6.55,0,0,1,4.68,2c1.25,1.23,1.78,3,1.78,5.72l0,12.65c0,2.7-.53,4.21-1.78,5.43s-3.48,1.86-5.8,2l1.08,0h15.85q9.94,0,9.94-9.94Q173.1,145.48,169.12,143.49Zm-11.92-5h4q2,0,2,1.49t-2,1.49h-4Zm6,12.92h-6v-4h6a2,2,0,0,1,0,4Z"/><path class="cls-3" d="M253.14,131.05v-3.41h-1.3V127h3.27v.59h-1.31v3.41Zm2.42,0v-4h1l1,3.2,1-3.2h1v4h-.61v-3.36l-1,3.36h-.6l-1.08-3.41v3.41Z"/></svg>