<svg id="Layer_1" data-name="Layer 1" xmlns="http://www.w3.org/2000/svg" viewBox="0 0 285 285"><defs><style>.cls-1{fill:#010101;}.cls-2{fill:#231f20;}</style></defs><title>Webpage logo 285x285px</title><path class="cls-1" d="M43,153.24a8,8,0,0,1-5.64,2.29,10,10,0,0,1-4.54-1.07A12.42,12.42,0,0,1,29,151.57a14.13,14.13,0,0,1-3.51-9.34,13.21,13.21,0,0,1,1-5.07,12.42,12.42,0,0,1,6.64-6.8,12.14,12.14,0,0,1,4.91-1,12.55,12.55,0,0,1,3.13.38,10.68,10.68,0,0,1,2.76,1.13,10.54,10.54,0,0,1,2.27,1.78A9.41,9.41,0,0,1,47.82,135l-5.27,4a5.64,5.64,0,0,0-2-2.45,4.84,4.84,0,0,0-2.82-.93,4.13,4.13,0,0,0-2,.51,4.93,4.93,0,0,0-1.6,1.42,7.06,7.06,0,0,0-1.05,2.16,10.13,10.13,0,0,0,0,5.51,6.6,6.6,0,0,0,1.07,2.13,4.87,4.87,0,0,0,1.65,1.38,4.61,4.61,0,0,0,2.13.49,5.28,5.28,0,0,0,2.53-.65,8,8,0,0,0,2.27-1.89H38.19v-5.09H48.81v13.74H43Z"/><path class="cls-1" d="M63,136.92h0l-2.4,8.65h4.69ZM50.51,155.35l9.64-25.81h5.74l9.6,25.81H68l-1.56-5.05H59.57L58,155.35Z"/><path class="cls-1" d="M93.6,138a19.91,19.91,0,0,0-2.25-1.16,20.93,20.93,0,0,0-2.2-.82,8,8,0,0,0-2.38-.38,3.31,3.31,0,0,0-1.51.29,1,1,0,0,0-.56,1,1.13,1.13,0,0,0,.33.84,3.08,3.08,0,0,0,.94.6,11.8,11.8,0,0,0,1.51.53q.89.26,2,.62a26.34,26.34,0,0,1,3.22,1.2,10,10,0,0,1,2.45,1.54,6,6,0,0,1,1.56,2.16,7.84,7.84,0,0,1,.55,3.09,8.15,8.15,0,0,1-.85,3.91,7,7,0,0,1-2.25,2.53A9.5,9.5,0,0,1,91,155.26a15.36,15.36,0,0,1-3.54.42,20.1,20.1,0,0,1-2.91-.22,25.17,25.17,0,0,1-3-.62,25.76,25.76,0,0,1-2.84-.94,18.14,18.14,0,0,1-2.53-1.24l3.05-6.22a21.29,21.29,0,0,0,2.65,1.42,18.71,18.71,0,0,0,2.64,1,10.5,10.5,0,0,0,3,.44,3,3,0,0,0,1.62-.31,1,1,0,0,0,.46-.82,1.17,1.17,0,0,0-.46-.93,4.17,4.17,0,0,0-1.25-.67q-.8-.29-1.84-.58t-2.2-.69A18.87,18.87,0,0,1,80.95,144a8,8,0,0,1-2-1.53,5.45,5.45,0,0,1-1.18-1.94,7.58,7.58,0,0,1-.38-2.51,8.67,8.67,0,0,1,.78-3.78,7.75,7.75,0,0,1,2.13-2.73,9.49,9.49,0,0,1,3.07-1.65,11.69,11.69,0,0,1,3.65-.56,13.88,13.88,0,0,1,2.76.27,22.36,22.36,0,0,1,2.6.69,25,25,0,0,1,2.35.91q1.09.49,2,.93Z"/><polygon class="cls-1" points="98.94 155.35 98.94 129.54 106.03 129.54 106.03 140.08 114.61 129.54 121.89 129.54 112.5 141.1 122.54 155.35 115.12 155.35 108.32 145.06 106.03 147.68 106.03 155.35 98.94 155.35"/><polygon class="cls-1" points="142.39 149.17 142.39 155.35 123.99 155.35 123.99 129.54 142.06 129.54 142.06 135.72 131.08 135.72 131.08 139.35 140.46 139.35 140.46 145.1 131.08 145.1 131.08 149.17 142.39 149.17"/><polygon class="cls-1" points="165.81 135.72 158.39 135.72 158.39 155.35 151.3 155.35 151.3 135.72 143.84 135.72 143.84 129.54 165.81 129.54 165.81 135.72"/><path class="cls-1" d="M184.82,148.26h0a5.29,5.29,0,0,0-.33-1.84,4.78,4.78,0,0,0-2.35-2.65,3.83,3.83,0,0,0-1.76-.42H170.5v9.78h9.64a4.39,4.39,0,0,0,1.85-.4,4.6,4.6,0,0,0,1.49-1.07,5.17,5.17,0,0,0,1-1.56,4.83,4.83,0,0,0,.36-1.84M170.5,131.76h0v9.53h8.87a4,4,0,0,0,1.76-.4,4.68,4.68,0,0,0,2.35-2.56,5,5,0,0,0,.33-1.8,5.52,5.52,0,0,0-.31-1.85,4.54,4.54,0,0,0-.87-1.51,4.31,4.31,0,0,0-1.35-1,3.8,3.8,0,0,0-1.69-.38Zm16.87,16.94a6.12,6.12,0,0,1-.58,2.67,6.73,6.73,0,0,1-1.56,2.11,7.07,7.07,0,0,1-2.29,1.38,7.91,7.91,0,0,1-2.8.49H168V129.54h12.4a5.1,5.1,0,0,1,2.44.58,6.1,6.1,0,0,1,1.85,1.51,6.94,6.94,0,0,1,1.18,2.11,7.11,7.11,0,0,1,.42,2.38,6.77,6.77,0,0,1-1,3.58,6.07,6.07,0,0,1-2.73,2.42,6.46,6.46,0,0,1,3.51,2.44A6.89,6.89,0,0,1,187.37,148.7Z"/><path class="cls-1" d="M190.27,142.45h0a12,12,0,0,0,.69,4.05,11,11,0,0,0,2,3.45,9.66,9.66,0,0,0,3,2.4,8.44,8.44,0,0,0,3.89.89,8.32,8.32,0,0,0,4-.94,9.67,9.67,0,0,0,3-2.47,11.44,11.44,0,0,0,1.91-3.45,11.88,11.88,0,0,0,0-8,11.08,11.08,0,0,0-2-3.44,9.77,9.77,0,0,0-3-2.38,8.35,8.35,0,0,0-3.85-.89,8.45,8.45,0,0,0-4,.93,9.44,9.44,0,0,0-3,2.45,11.41,11.41,0,0,0-1.91,3.45,11.83,11.83,0,0,0-.67,3.93m9.56,13.09a10.92,10.92,0,0,1-4.93-1.11,12.22,12.22,0,0,1-3.84-2.94,13.38,13.38,0,0,1-2.47-4.2,13.86,13.86,0,0,1-.87-4.84,13.41,13.41,0,0,1,.93-4.94,13.61,13.61,0,0,1,2.56-4.18,12.38,12.38,0,0,1,3.85-2.89,10.89,10.89,0,0,1,4.8-1.07,10.65,10.65,0,0,1,4.93,1.15,12.36,12.36,0,0,1,3.82,3,13.83,13.83,0,0,1,2.45,4.2,13.61,13.61,0,0,1,.87,4.78,13.42,13.42,0,0,1-.93,4.94,13.58,13.58,0,0,1-2.55,4.16,12.31,12.31,0,0,1-3.84,2.87A10.88,10.88,0,0,1,199.84,155.53Z"/><polygon class="cls-1" points="216.45 134.26 216.45 155.35 213.94 155.35 213.94 129.54 215.91 129.54 233 151.03 233 129.57 235.5 129.57 235.5 155.35 233.32 155.35 216.45 134.26"/><path class="cls-1" d="M257,142.41h0a13.33,13.33,0,0,0-.65-4.27,9.67,9.67,0,0,0-1.91-3.36,8.55,8.55,0,0,0-3.07-2.2,10.51,10.51,0,0,0-4.18-.78h-6.22V153.1h6.22a10.33,10.33,0,0,0,4.24-.82,8.61,8.61,0,0,0,3.07-2.25,9.78,9.78,0,0,0,1.87-3.38,13.55,13.55,0,0,0,.64-4.24m-18.54,12.94V129.54h8.73a13.42,13.42,0,0,1,5.42,1,11,11,0,0,1,3.87,2.76,11.42,11.42,0,0,1,2.31,4.09,16,16,0,0,1,.76,5,15.39,15.39,0,0,1-.87,5.33,11.69,11.69,0,0,1-2.47,4.07,10.91,10.91,0,0,1-3.89,2.62,13.54,13.54,0,0,1-5.13.93Z"/><path class="cls-2" d="M253.14,129.54v-3.41h-1.3v-.59h3.27v.59h-1.31v3.41Zm2.42,0v-4h1l1,3.2,1-3.2h1v4h-.61v-3.36l-1,3.36h-.6l-1.08-3.41v3.41Z"/></svg>