<svg id="Layer_1" data-name="Layer 1" xmlns="http://www.w3.org/2000/svg" xmlns:xlink="http://www.w3.org/1999/xlink" viewBox="0 0 285 285"><defs><style>.cls-1{fill:none;}.cls-2{clip-path:url(#clip-path);}.cls-3{fill:url(#linear-gradient);}.cls-4{fill:#db1f26;fill-rule:evenodd;}.cls-5{fill:#231f20;}</style><clipPath id="clip-path"><path class="cls-1" d="M-164.3-256c-2.42.32-59.63,7.84-85.92,17.78l-1.27.48v1.4c0,2.77-.47,68.16,7.21,98.83,3.61,14.44,15.06,29.94,32.24,43.66,15.14,12.09,32.92,21.35,47.57,24.77l.43.1.43-.1C-149-72.5-131.2-81.76-116.06-93.84c17.18-13.72,28.63-29.22,32.24-43.66,7.67-30.68,7.23-96.07,7.21-98.83v-1.4l-1.27-.48c-26.3-9.94-83.5-17.46-85.92-17.78l-.24,0Z"/></clipPath><linearGradient id="linear-gradient" x1="-1617.46" y1="-843.41" x2="-1616.57" y2="-843.41" gradientTransform="matrix(-111.23, -192.65, -192.65, 111.23, -342512.09, -217883.66)" gradientUnits="userSpaceOnUse"><stop offset="0" stop-color="#8b8486"/><stop offset="1" stop-color="#4c4447"/></linearGradient></defs><title>Webpage logo 285x285px</title><g class="cls-2"><polygon class="cls-3" points="-208.01 9.94 -330.1 -209.26 -120.1 -334.94 1.99 -115.74 -208.01 9.94"/></g><polygon class="cls-4" points="25.5 115.18 68.99 115.18 68.99 128.5 54.44 128.5 54.44 171.23 39.59 171.23 39.59 128.5 25.5 128.5 25.5 115.18"/><path class="cls-4" d="M96.94,139.14h0c3.9,0,4.13-2,4.13-6,0-3.37-.77-5.36-4.13-5.36H88.75v11.33Zm-23.12-24h25c10,0,17.15,4.06,17.15,18,0,13.32-4.37,15.31-8.27,16.85l9.65,21.21H100.46l-7.2-19.83-4.6-1.07v20.9H73.82Z"/><path class="cls-4" d="M121.29,115h14.86v31.55c0,7.2.15,11.56,7.43,11.56,6.82,0,7-4.67,7-11.56V115h14.93v31.55c0,24.73-12.63,24.88-21.9,24.88-10.41,0-22.28.61-22.28-24.88Z"/><polygon class="cls-4" points="169.53 157.9 191.43 128.5 169.53 128.5 169.53 115.18 208.81 115.18 208.81 128.5 189.21 157.9 208.81 157.9 208.81 171.23 169.53 171.23 169.53 157.9"/><path class="cls-4" d="M236.3,158.25h0c6.58,0,8.35-2.76,8.35-14.63,0-13-1.38-15.47-8.35-15.47-6.74,0-8.35,1.76-8.35,15.47,0,11.72.84,14.63,8.35,14.63m0-43.41c13.25,0,23.2,2.53,23.2,28.79,0,24.73-9.42,27.95-23.2,27.95s-23.2-2.45-23.2-27.95C213.1,117.36,223.44,114.83,236.3,114.83Z"/><path class="cls-5" d="M252.91,117.58V114h-1.35v-.62H255V114H253.6v3.54Zm2.51,0v-4.15h1l1,3.32,1-3.32h1v4.15h-.63V114.1l-1.07,3.48h-.63L256.06,114v3.54Z"/></svg>