<svg id="Layer_1" data-name="Layer 1" xmlns="http://www.w3.org/2000/svg" viewBox="0 0 285 285"><defs><style>.cls-1,.cls-2{fill:#231f20;}.cls-2{fill-rule:evenodd;}</style></defs><title>Webpage logo 285x285px</title><path class="cls-1" d="M220.2,116.66h15.4l-6.32-16.61-3.25,6Zm-26.26,24.92q4.18-6.61,9.82-16.37l10.59-18.16q4.94-8.44,8.2-14.57c3.49,0,6,.07,7.4.07,2.55,0,5,0,7.48-.07l5.75,14.71,12.51,30.44,1.73,4-6-.07c-1.39,0-3.73,0-7,.07q-1-3.2-3-8.63c-1.37-3.62-2.55-6.56-3.51-8.82H216.62q-4.69,8.56-9.17,17.45l-6.55-.07Q199,141.51,193.94,141.59Zm-23.85-28.06q5.56.08,10.63.07,6.63,0,11.05-.07-1.05,12-1.48,26.75-6.69,1.2-12.07,1.67t-9.17.49a61.4,61.4,0,0,1-13.14-1.33,27.84,27.84,0,0,1-10.23-4.32,19,19,0,0,1-6.37-7.86,24.72,24.72,0,0,1-2.2-10.3,25.17,25.17,0,0,1,6.45-16.87,27.27,27.27,0,0,1,7.73-6,32.08,32.08,0,0,1,9.61-3.27,62.8,62.8,0,0,1,10.75-.88,100.81,100.81,0,0,1,17.94,1.87c0,2.74.18,5.6.44,8.59a59.89,59.89,0,0,0-17.17-2.87,33.59,33.59,0,0,0-9.35,1.27,20.71,20.71,0,0,0-7.59,3.89,17.14,17.14,0,0,0-4.86,6.56,20.3,20.3,0,0,0-1.68,8.07,17.64,17.64,0,0,0,1.91,8.3,12.81,12.81,0,0,0,6.41,5.66A25.19,25.19,0,0,0,168,135a45.48,45.48,0,0,0,11.05-1.51l.65-12.62-3.17,0q-2.7,0-6.84.11C170,117.69,170.09,115.24,170.09,113.53Zm-82,28.06,1.17-13.78.84-15.94.52-14.5V92.49q9.92.07,20.72.07l7.71,0,11.63,0-.48,7.77-3.82-.18c-1.06,0-2.5-.09-4.35-.11s-3.73,0-5.67,0c-4.19,0-6.88,0-8.1,0s-3.06,0-5.53.12l-.65,12.77q5.5.11,11.11.11c2.57,0,6.92-.07,13-.22-.22,2.18-.4,4.8-.56,7.85l-12.3-.11q-4.74,0-11.82.22l-.65,13.46,4.42,0c1.29,0,4.23,0,8.84-.07l8.72-.15,5.84-.25c-.28,2.77-.45,5.4-.56,7.87-7,0-13.25-.07-18.86-.07l-13.22,0Zm-43.44,0-1.54-4.53c-.21-.6-1.1-2.88-2.65-6.88l-7.8-19.85L25.5,92.49q4.14.07,6.88.07c1.12,0,3.1,0,5.92-.07l1.25,4c.26.82.66,1.93,1.17,3.32l9.72,26.37c.59,1.69,1.36,3.94,2.29,6.73l2.17-4.4q.82-1.62,3.35-6.33L70.91,98.49c.37-.69.75-1.42,1.12-2.21s1-2,1.77-3.79q4.39.07,6.67.07c.92,0,3,0,6.31-.07l-3.46,5.76-22,38.85L59,141.59q-5.23-.07-7-.07Q50.44,141.51,44.65,141.59Z"/><path class="cls-1" d="M209.76,174.06l6.57-7.22,6-6.8c.42-.5,1.14-1.37,2.14-2.61l5.2.05,5-.05-13.31,14-2.25,2.51,1.82,2.33,5.73,6.73,8.42,9.76-5.15-.05-5.64.05-1.86-2.59c-.35-.5-1-1.32-1.85-2.46l-7.87-10Zm-10.5,18.69q.49-5.07.72-8.74.34-5.26.77-14.86.28-6.57.29-9.32v-2.4l4.72.05,4.46-.05-.89,14-.78,16.75-.09,4.6L204,192.7Zm-6.13-6.47c-.43,2-.79,4.07-1.1,6.16q-3.3.52-6.05.72t-4.71.2a31.17,31.17,0,0,1-8.3-1.09,21.33,21.33,0,0,1-7.12-3.43,13.59,13.59,0,0,1-4.58-5.68,19.37,19.37,0,0,1,.29-15.24,16.76,16.76,0,0,1,4.91-6.17A21.56,21.56,0,0,1,174,158a33.37,33.37,0,0,1,9.12-1.23,60.88,60.88,0,0,1,10.24,1q.09,2.31.18,3.26l.2,2.77c-2.18-.51-4-.87-5.44-1.06a32.38,32.38,0,0,0-4.14-.28,21.09,21.09,0,0,0-5.95.84,14,14,0,0,0-5,2.68,12.38,12.38,0,0,0-3.35,4.44,13,13,0,0,0-1.17,5.41,12.37,12.37,0,0,0,1.45,6,10.56,10.56,0,0,0,4.64,4.33,17.08,17.08,0,0,0,7.91,1.65A43.27,43.27,0,0,0,193.12,186.29Zm-49.69,6.47q.7-8.9,1.12-18.26c.29-6.24.47-6.65.44-10l0-2.76,4.84.05,4.43-.05c-.79,9.07-1.29,16.5-1.5,31l-4.26-.05Zm-43-35.32,4.54.05c1,0,2.45,0,4.39-.05L108,178.31c0,.24,0,.49,0,.78a10,10,0,0,0,1.12,5.25,6.28,6.28,0,0,0,3.27,2.56,14,14,0,0,0,4.93.8,15.18,15.18,0,0,0,3.36-.36,10.7,10.7,0,0,0,2.38-.86,7.28,7.28,0,0,0,1.53-1.09,6.6,6.6,0,0,0,1.3-1.73,7.59,7.59,0,0,0,.81-2.17,56.69,56.69,0,0,0,.69-6.39l.61-9q.21-3.93.32-8.67,3.27.05,4.86.05l4.23-.05-.9,12.47-.58,9.91a23.71,23.71,0,0,1-.81,5.18,10.09,10.09,0,0,1-1.3,2.64,9.44,9.44,0,0,1-1.94,1.93,14.68,14.68,0,0,1-3.39,1.92,21.05,21.05,0,0,1-4.59,1.32,41.31,41.31,0,0,1-6.92.56,37.08,37.08,0,0,1-6.82-.59,20.29,20.29,0,0,1-5-1.61,12.81,12.81,0,0,1-3.6-2.43A8,8,0,0,1,99.85,186a10.78,10.78,0,0,1-.72-4c0-.52,0-1.18.06-2s.11-1.87.2-3.17l.27-3.65c.09-1.14.2-2.81.32-5l.29-5.62C100.34,161,100.41,159.3,100.46,157.43Zm-29.6,4.92a16.34,16.34,0,0,0-7.59,1.75A11.84,11.84,0,0,0,58.14,169a13.5,13.5,0,0,0-1.74,6.61,11.86,11.86,0,0,0,1.77,6.6A11.1,11.1,0,0,0,63,186.32a16.23,16.23,0,0,0,6.81,1.41,16.51,16.51,0,0,0,7.34-1.63,11.25,11.25,0,0,0,5-4.69,13.94,13.94,0,0,0,1.69-6.84,13.32,13.32,0,0,0-.9-5,10.74,10.74,0,0,0-2.59-3.89,11.06,11.06,0,0,0-4.24-2.46A16.5,16.5,0,0,0,70.87,162.35ZM93.34,186c-.25,1-.48,2.07-.69,3.11l-.55,2.82c-3.38.45-7,.8-10.89,1.06s-7.2.39-9.94.39a41.39,41.39,0,0,1-9-.94,21.15,21.15,0,0,1-7.57-3.3,16,16,0,0,1-5.09-5.67,16.28,16.28,0,0,1-1.74-7.66,18.2,18.2,0,0,1,1.69-7.89,17,17,0,0,1,5-6.14A21.61,21.61,0,0,1,62.11,158a33.94,33.94,0,0,1,9.16-1.2,31.34,31.34,0,0,1,8.43,1.12,19.06,19.06,0,0,1,7,3.5,16.18,16.18,0,0,1,6,12.56,16,16,0,0,1-1.56,6.85,13.67,13.67,0,0,1-1.71,2.74,16.26,16.26,0,0,1-2,2c-.66.56-1.47,1.2-2.41,1.89,1.85-.19,3.17-.36,4-.5S91.26,186.51,93.34,186Z"/><path class="cls-2" d="M152.2,141.59c-.8,6,2.55,9.42,9.29,9.42-6.74,0-11,3.4-11.79,9.42.8-6-2.55-9.42-9.29-9.42,6.74,0,11-3.4,11.79-9.42"/><path class="cls-2" d="M40.35,150.27h92.93c.17,0,.31.41.31.91s-.14.91-.31.91H40.35c-.17,0-.31-.41-.31-.91s.14-.91.31-.91"/><path class="cls-2" d="M166.31,150.27h92.88c.17,0,.31.41.31.91s-.14.91-.31.91H166.31c-.17,0-.31-.41-.31-.91s.14-.91.31-.91"/></svg>