<svg id="Layer_1" data-name="Layer 1" xmlns="http://www.w3.org/2000/svg" viewBox="0 0 285 285"><defs><style>.cls-1{fill:#243e78;}.cls-1,.cls-2{fill-rule:evenodd;}.cls-2{fill:#d22429;}.cls-3{fill:#231f20;}</style></defs><title>Webpage logo 285x285px</title><path class="cls-1" d="M248,119.61H169.52a5.62,5.62,0,0,0-5.12,3.31l-6.82,15.15,0,0-2,4.45v0l-2.33,5.17-2,4.52h0l-3.79,8.42a2,2,0,0,1-1.79,1.16H31.11a2,2,0,0,1-2-2V125.22a2,2,0,0,1,2-2H145.65a2,2,0,0,1,1.79,1.16l6.15,13.75,2-4.42-4.83-10.82a5.61,5.61,0,0,0-5.11-3.31H31.11a5.62,5.62,0,0,0-5.61,5.61v34.56a5.61,5.61,0,0,0,5.61,5.61H145.65a5.61,5.61,0,0,0,5.11-3.31l6.82-15.15v0l2-4.42,0,0,2.93-6.51,5.21-11.57a2,2,0,0,1,1.8-1.16H248a2,2,0,0,1,2,2v34.56a2,2,0,0,1-2,2H169.52a2,2,0,0,1-1.8-1.16L161.1,146l-2,4.45,5.29,11.64a5.61,5.61,0,0,0,5.12,3.31H248a5.61,5.61,0,0,0,5.61-5.61V125.22A5.62,5.62,0,0,0,248,119.61Z"/><path class="cls-1" d="M35.39,156.4V128.51H45.92a11.94,11.94,0,0,1,5.26,1.09,6.58,6.58,0,0,1,3.92,6.31,6.34,6.34,0,0,1-3.42,5.8,7,7,0,0,1,4.84,6.72,7.51,7.51,0,0,1-5,7.31,11.77,11.77,0,0,1-4.13.67Zm7-16.83h2.42c2.76,0,3.38-1.34,3.38-2.67a2.46,2.46,0,0,0-1.59-2.34,7.08,7.08,0,0,0-2-.25H42.37v5.26Zm0,10.86h3.38a4.62,4.62,0,0,0,2.46-.5,2.39,2.39,0,0,0,1.13-2.09A2.76,2.76,0,0,0,48,145.42a5.29,5.29,0,0,0-2.34-.46H42.37Z"/><path class="cls-1" d="M60.49,142.46a17.44,17.44,0,0,1,1.75-8,10.81,10.81,0,0,1,4.76-5A13.74,13.74,0,0,1,73.06,128a11.68,11.68,0,0,1,7.52,2.42,11.29,11.29,0,0,1,4,5.72,20.73,20.73,0,0,1,1,6.31c0,7.93-4.26,14.53-12.61,14.53s-12.57-6.6-12.57-14.53Zm17.83,0h0c.08-5.64-2.71-8.39-5.26-8.18-4-.13-5.34,4.8-5.22,8.18,0,4.72,1.75,8.23,5.22,8.23C76.9,150.89,78.49,145.92,78.32,142.46Z"/><polygon class="cls-1" points="91.59 156.4 91.59 128.51 98.78 128.51 107.38 143.21 107.38 128.51 114.35 128.51 114.35 156.4 107.88 156.4 98.57 140.7 98.57 156.4 91.59 156.4"/><path class="cls-1" d="M121.49,156.4V128.51h9.06a16.2,16.2,0,0,1,6.85,1.38c5.05,2.17,7,8.35,6.93,12.49,0,5.55-2.38,10.4-7,12.61a15.69,15.69,0,0,1-6.64,1.42Zm7.14-6.43h1.8a6.38,6.38,0,0,0,3.8-1c1.84-1.29,2.84-3.59,2.84-6.43s-.92-5.09-2.59-6.39a6.68,6.68,0,0,0-4-1.17h-1.84Z"/><path class="cls-2" d="M170.6,155.32l3.06-6.21a12.6,12.6,0,0,0,2.35,1.42,12.83,12.83,0,0,0,5.54,1.46c2.53,0,3.77-.84,3.77-2.26a2,2,0,0,0-.53-1.55c-.71-.71-2.75-1.51-5-2.26-5.45-1.64-8.91-3.86-8.91-9.35a8.22,8.22,0,0,1,1.59-5.1c2.13-2.88,5.81-3.86,9.31-3.86,5.76,0,8.91,2.35,10.73,4.3l-4,5.05a8.73,8.73,0,0,0-6.52-3.19c-2.48,0-3.64.88-3.64,2.17a2.15,2.15,0,0,0,1,1.77,25.23,25.23,0,0,0,4.52,1.77c6.92,1.91,8.69,5,8.82,9.75a8.17,8.17,0,0,1-1.86,5.5,8.88,8.88,0,0,1-4.43,2.88,17.83,17.83,0,0,1-4.79.75A19,19,0,0,1,170.6,155.32Z"/><polygon class="cls-2" points="196.82 157.76 196.82 128.14 216.81 128.14 216.81 135.01 204.4 135.01 204.4 139.8 214.55 139.8 214.55 146.14 204.4 146.14 204.4 150.88 217.7 150.88 217.7 157.76 196.82 157.76"/><polygon class="cls-2" points="227.11 157.76 227.11 135.01 219.26 135.01 219.26 128.14 242.49 128.14 242.49 135.01 234.73 135.01 234.73 157.76 227.11 157.76"/><path class="cls-3" d="M247.24,118.48v-3.41h-1.3v-.59h3.27v.59H247.9v3.41Zm2.42,0v-4h1l1,3.2,1-3.2h1v4H253v-3.36l-1,3.36h-.6l-1.08-3.41v3.41Z"/></svg>