<svg id="Layer_1" data-name="Layer 1" xmlns="http://www.w3.org/2000/svg" xmlns:xlink="http://www.w3.org/1999/xlink" viewBox="0 0 285 285"><defs><style>.cls-1{fill:none;}.cls-2{fill:#0a61ad;}.cls-3{fill:#231f20;}.cls-4{clip-path:url(#clip-path);}.cls-5{fill:url(#linear-gradient);}</style><clipPath id="clip-path"><path class="cls-1" d="M445.7,49c-2.42.32-59.63,7.84-85.92,17.78l-1.27.48v1.4c0,2.77-.47,68.16,7.21,98.84,3.61,14.44,15.06,29.94,32.24,43.66,15.14,12.09,32.92,21.35,47.57,24.77l.43.1.43-.1c14.64-3.42,32.43-12.68,47.56-24.77,17.18-13.72,28.63-29.22,32.24-43.66,7.67-30.68,7.23-96.07,7.21-98.83v-1.4l-1.27-.48c-26.3-9.94-83.5-17.46-85.92-17.78l-.24,0Z"/></clipPath><linearGradient id="linear-gradient" x1="-1007.46" y1="-538.41" x2="-1006.57" y2="-538.41" gradientTransform="matrix(-111.23, -192.65, -192.65, 111.23, -215294.48, -133985.54)" gradientUnits="userSpaceOnUse"><stop offset="0" stop-color="#8b8486"/><stop offset="1" stop-color="#4c4447"/></linearGradient></defs><title>Webpage logo 285x285px</title><path class="cls-2" d="M42.27,145.32l10.19,13.31H42l-8-12.45v12.45H25.5V126.19H38.62a13.48,13.48,0,0,1,5,.82,8.5,8.5,0,0,1,3.48,2.63,9.9,9.9,0,0,1,1.65,3,10.9,10.9,0,0,1-.11,7.33,8.35,8.35,0,0,1-1.88,3,7.55,7.55,0,0,1-1.9,1.4A11.14,11.14,0,0,1,42.27,145.32Zm-8.34-4.63H35.5a5.43,5.43,0,0,0,3.83-1.11,3.94,3.94,0,0,0,.91-4.5,3.75,3.75,0,0,0-.91-1.33,5.43,5.43,0,0,0-3.83-1.11H33.93Z"/><path class="cls-2" d="M74.47,133.25h-10v5.49h9.48v7.06H64.44v5.77h10v7.06H56V126.19H74.47Z"/><path class="cls-2" d="M101,128l-3.37,6.56a9,9,0,0,0-5.56-2.14,3.81,3.81,0,0,0-2.78,1,2.5,2.5,0,0,0-.86,1.81A2.63,2.63,0,0,0,90,137.46a5.65,5.65,0,0,0,1.09.5q.57.19,3.18,1a17.5,17.5,0,0,1,3.88,1.56,9,9,0,0,1,2.48,2.15A7.07,7.07,0,0,1,101.9,145a9.87,9.87,0,0,1,.39,2.92q0,5.47-3,8.27a11.71,11.71,0,0,1-4.22,2.46,16.43,16.43,0,0,1-5.41.87,18.68,18.68,0,0,1-6.58-1.24,20,20,0,0,1-4.7-2.45L82,149q3.8,3.42,7.44,3.42a4.1,4.1,0,0,0,3.28-1.17,3,3,0,0,0,.83-2,2.78,2.78,0,0,0-1.47-2.38,15.28,15.28,0,0,0-3.61-1.38,36.31,36.31,0,0,1-4-1.34,8.76,8.76,0,0,1-2.17-1.3q-2.59-2.14-2.59-6.47a10.55,10.55,0,0,1,11-11,20.82,20.82,0,0,1,5.22.68A23.58,23.58,0,0,1,101,128Z"/><path class="cls-2" d="M116,126.19v32.43h-8.43V126.19Z"/><path class="cls-2" d="M122,158.62V126.19h12.54q4.42,0,6.77,2.17a8.12,8.12,0,0,1,2.35,6.28,8.31,8.31,0,0,1-1,4.25,6.2,6.2,0,0,1-1,1.36,8.66,8.66,0,0,1-1.53,1.1,12,12,0,0,1,3,1,6,6,0,0,1,1.9,1.6,7.83,7.83,0,0,1,1.21,2.47,10.19,10.19,0,0,1,.45,3,10,10,0,0,1-.5,3.31,7.67,7.67,0,0,1-1.57,2.62q-3,3.31-9.12,3.31Zm8.43-19.7H132a5.89,5.89,0,0,0,1.89-.25,3,3,0,0,0,1.23-.81,3,3,0,0,0,.76-2.1,3,3,0,0,0-2-2.89,5.91,5.91,0,0,0-1.89-.25h-1.54Zm0,13.26h1.88a9.47,9.47,0,0,0,4.51-.76,2.75,2.75,0,0,0,1.06-1.09,3.09,3.09,0,0,0,.39-1.52,3,3,0,0,0-1.33-2.68,3.77,3.77,0,0,0-1.59-.63,22.34,22.34,0,0,0-3.18-.15h-1.73Z"/><path class="cls-2" d="M168.57,125.21a19.61,19.61,0,0,1,7.64,1.49,15.92,15.92,0,0,1,5.93,4.19,17.26,17.26,0,0,1,3.22,5.43,16.81,16.81,0,0,1,0,12.36,17.26,17.26,0,0,1-3.22,5.43,15.92,15.92,0,0,1-5.93,4.19,20.28,20.28,0,0,1-15.27,0,15.92,15.92,0,0,1-5.92-4.18,18.24,18.24,0,0,1-4.4-11.59A18.62,18.62,0,0,1,155,130.89a16.11,16.11,0,0,1,6-4.19A19.57,19.57,0,0,1,168.57,125.21Zm0,8.2a9.11,9.11,0,0,0-7,3.21,9.23,9.23,0,0,0-1.62,2.77,8.78,8.78,0,0,0,0,6.23,9.23,9.23,0,0,0,1.62,2.77,8.89,8.89,0,0,0,3.12,2.38,9.38,9.38,0,0,0,7.72,0,9.26,9.26,0,0,0,3.15-2.35,8.83,8.83,0,0,0,2.19-5.89,9.12,9.12,0,0,0-.57-3.18,8.62,8.62,0,0,0-1.62-2.73,9.29,9.29,0,0,0-7-3.18Z"/><path class="cls-2" d="M191.88,158.62V126.19h8.43L215.83,146V126.19h8.43v32.43h-8.43l-15.52-19.86v19.86Z"/><path class="cls-2" d="M231.06,158.62V126.19h12.45a15.43,15.43,0,0,1,9.72,3.44,16.37,16.37,0,0,1,4.6,5.71,15.7,15.7,0,0,1,0,14.11,16.36,16.36,0,0,1-4.6,5.71,15.5,15.5,0,0,1-9.72,3.45Zm8.43-7.06h1.92a10.7,10.7,0,0,0,4.37-.8,7.78,7.78,0,0,0,3.06-2.51,10.08,10.08,0,0,0,0-11.71,8,8,0,0,0-3.06-2.51,10.6,10.6,0,0,0-4.37-.8h-1.92Z"/><path class="cls-3" d="M256.92,123.66a2.64,2.64,0,0,1,1.27.33,2.36,2.36,0,0,1,1,1,2.59,2.59,0,0,1,0,2.58,2.4,2.4,0,0,1-1,1,2.59,2.59,0,0,1-2.57,0,2.42,2.42,0,0,1-1-1,2.58,2.58,0,0,1,0-2.58,2.38,2.38,0,0,1,1-1A2.64,2.64,0,0,1,256.92,123.66Zm0,.43a2.2,2.2,0,0,0-1.06.28,2,2,0,0,0-.8.8,2.14,2.14,0,0,0,0,2.15,2,2,0,0,0,.8.8,2.14,2.14,0,0,0,2.14,0,2,2,0,0,0,.8-.8,2.16,2.16,0,0,0,0-2.15,2,2,0,0,0-.81-.8A2.2,2.2,0,0,0,256.92,124.09Zm-1.13,3.58v-2.78h1a2.35,2.35,0,0,1,.71.08.69.69,0,0,1,.35.27.71.71,0,0,1,.13.41.74.74,0,0,1-.22.53.86.86,0,0,1-.58.25.76.76,0,0,1,.24.15,3.21,3.21,0,0,1,.41.55l.34.54h-.55l-.25-.44a2.25,2.25,0,0,0-.47-.65.57.57,0,0,0-.36-.1h-.26v1.18Zm.45-1.56h.54a.87.87,0,0,0,.53-.12.38.38,0,0,0,.14-.31.37.37,0,0,0-.07-.22.41.41,0,0,0-.19-.15,1.42,1.42,0,0,0-.45,0h-.51Z"/><g class="cls-4"><polygon class="cls-5" points="401.99 314.94 279.9 95.74 489.9 -29.94 611.99 189.26 401.99 314.94"/></g></svg>