<?xml version="1.0" encoding="utf-8"?>
<!-- Generator: Adobe Illustrator 26.0.3, SVG Export Plug-In . SVG Version: 6.00 Build 0)  -->
<svg version="1.1" id="Layer_1" xmlns="http://www.w3.org/2000/svg" xmlns:xlink="http://www.w3.org/1999/xlink" x="0px" y="0px"
	 viewBox="0 0 285 285" style="enable-background:new 0 0 285 285;" xml:space="preserve">
<style type="text/css">
	
		.st0{clip-path:url(#SVGID_00000075160534774251608170000014766712996166446740_);fill-rule:evenodd;clip-rule:evenodd;fill:#0082CA;}
	.st1{clip-path:url(#SVGID_00000075160534774251608170000014766712996166446740_);fill:#FFF200;}
	
		.st2{clip-path:url(#SVGID_00000075160534774251608170000014766712996166446740_);fill-rule:evenodd;clip-rule:evenodd;fill:#FFFFFF;}
	.st3{clip-path:url(#SVGID_00000075160534774251608170000014766712996166446740_);fill:#0082CA;}
</style>
<g>
	<defs>
		<rect id="SVGID_1_" x="-13.6" y="-14" width="312.1" height="367.8"/>
	</defs>
	<clipPath id="SVGID_00000007428806434679229320000002562281071711028364_">
		<use xlink:href="#SVGID_1_"  style="overflow:visible;"/>
	</clipPath>
	
		<rect x="-13.6" y="-14" style="clip-path:url(#SVGID_00000007428806434679229320000002562281071711028364_);fill-rule:evenodd;clip-rule:evenodd;fill:#0082CA;" width="312.1" height="299"/>
	<path style="clip-path:url(#SVGID_00000007428806434679229320000002562281071711028364_);fill:#FFF200;" d="M59.5,111.9l1.6-7.8
		h4.5c2.9,0,4.4,1.6,4.4,3.5c0,2.5-1.6,4.3-4.8,4.3H59.5z M55.2,132.2l2-9.4h6.8c3,0,4.8,2,4.8,4.2c0,2.9-2.2,5.2-5.5,5.2H55.2z
		 M34.8,145.4h31.1c13.2,0,20.3-7.8,20.3-16.4c0-9.4-9.4-11.5-9.4-11.5l0.2-0.3c0,0,11.8-1.5,11.8-13.2c0-6.2-5.9-13.3-18.7-13.3
		H46.4L34.8,145.4z"/>
	<path style="clip-path:url(#SVGID_00000007428806434679229320000002562281071711028364_);fill:#FFF200;" d="M114.5,122.8l7.6-15.2
		h0.4l1,15.2H114.5z M83.6,145.4h19.5l5.3-10.5h16l0.9,10.5h18L135,90.8h-19.9L83.6,145.4z"/>
	<polygon style="clip-path:url(#SVGID_00000007428806434679229320000002562281071711028364_);fill:#FFF200;" points="152.3,145.4 
		169.8,145.4 178,106.8 192.5,106.8 195.8,90.8 149.4,90.8 146,106.8 160.5,106.8 	"/>
	<polygon style="clip-path:url(#SVGID_00000007428806434679229320000002562281071711028364_);fill:#FFF200;" points="192.5,145.4 
		210,145.4 214.3,125.5 230.6,125.5 226.4,145.4 244,145.4 255.5,90.8 238,90.8 233.9,109.9 217.5,109.9 221.6,90.8 204,90.8 	"/>
	
		<path style="clip-path:url(#SVGID_00000007428806434679229320000002562281071711028364_);fill-rule:evenodd;clip-rule:evenodd;fill:#FFFFFF;" d="
		M241.9,154.6l-4.6,17.3c-1.2,4.6-6.2,8.3-11.1,8.3h-69.8l4.6-17.3c1.2-4.6,6.2-8.3,11.1-8.3H241.9z"/>
	<path style="clip-path:url(#SVGID_00000007428806434679229320000002562281071711028364_);fill:#0082CA;" d="M177.8,163.1l1.3-2.4h0
		l0.2,2.4H177.8z M173.3,166.7h2.6l1-1.8h2.7l0.2,1.8h2.3l-1.4-8.4h-2.5L173.3,166.7z"/>
	<path style="clip-path:url(#SVGID_00000007428806434679229320000002562281071711028364_);fill:#0082CA;" d="M187.3,167
		c2.2,0,3.5-1.3,3.5-1.3l-1.1-1.6c0,0-0.9,0.8-2.2,0.8c-1.3,0-2.2-1-2.2-2.2c0-1.4,1.2-2.5,2.6-2.5c1.6,0,2.2,1.2,2.2,1.2l1.6-1.4
		c0,0-1-1.9-3.6-1.9c-2.8,0-5.1,2.2-5.1,4.7C183,165.1,184.7,167,187.3,167"/>
	<path style="clip-path:url(#SVGID_00000007428806434679229320000002562281071711028364_);fill:#0082CA;" d="M195,162.1l0.4-1.7h1.5
		c0.5,0,0.8,0.3,0.8,0.8c0,0.5-0.4,0.9-1,0.9H195z M191.7,166.7h2.3l0.5-2.6h1.3l0.8,2.6h2.4l-1-3c0,0,2-0.5,2-2.8
		c0-1.4-0.9-2.6-2.7-2.6h-3.7L191.7,166.7z"/>
	<polygon style="clip-path:url(#SVGID_00000007428806434679229320000002562281071711028364_);fill:#0082CA;" points="201.8,166.7 
		204.1,166.7 204.7,163.8 208.8,158.4 206.2,158.4 203.9,161.7 203.8,161.7 202.9,158.4 200.6,158.4 202.5,163.8 	"/>
	<polygon style="clip-path:url(#SVGID_00000007428806434679229320000002562281071711028364_);fill:#0082CA;" points="208,166.7 
		214,166.7 214.4,164.6 210.8,164.6 212.1,158.4 209.8,158.4 	"/>
	<polygon style="clip-path:url(#SVGID_00000007428806434679229320000002562281071711028364_);fill:#0082CA;" points="215,166.7 
		217.3,166.7 219.1,158.4 216.8,158.4 	"/>
	<path style="clip-path:url(#SVGID_00000007428806434679229320000002562281071711028364_);fill:#0082CA;" d="M223.9,167
		c2.2,0,3.5-1.3,3.5-1.3l-1.1-1.6c0,0-0.9,0.8-2.2,0.8c-1.3,0-2.2-1-2.2-2.2c0-1.4,1.2-2.5,2.6-2.5c1.6,0,2.2,1.2,2.2,1.2l1.6-1.4
		c0,0-1-1.9-3.6-1.9c-2.8,0-5.1,2.2-5.1,4.7C219.6,165.1,221.3,167,223.9,167"/>
	<path style="clip-path:url(#SVGID_00000007428806434679229320000002562281071711028364_);fill:#0082CA;" d="M173.5,177
		c2.2,0,3.4-1.3,3.4-2.9c0-2.3-3.2-2.4-3.2-3.4c0-0.3,0.3-0.6,0.9-0.6c0.9,0,1.4,0.7,1.4,0.7l1.6-1.4c0,0-0.8-1.3-3-1.3
		c-2,0-3.3,1.3-3.3,2.7c0,2.3,3.2,2.4,3.2,3.4c0,0.4-0.4,0.7-1,0.7c-1.2,0-1.8-1-1.8-1l-1.6,1.4C170.1,175.4,171,177,173.5,177"/>
	<polygon style="clip-path:url(#SVGID_00000007428806434679229320000002562281071711028364_);fill:#0082CA;" points="177.7,176.8 
		184.2,176.8 184.6,174.8 180.4,174.8 180.6,173.6 183.8,173.6 184.2,171.7 181,171.7 181.3,170.5 185.4,170.5 185.8,168.4 
		179.4,168.4 	"/>
	<path style="clip-path:url(#SVGID_00000007428806434679229320000002562281071711028364_);fill:#0082CA;" d="M189.2,173.2l1.3-2.4h0
		l0.2,2.4H189.2z M184.7,176.8h2.6l1-1.8h2.7l0.2,1.8h2.3l-1.4-8.4h-2.5L184.7,176.8z"/>
	<polygon style="clip-path:url(#SVGID_00000007428806434679229320000002562281071711028364_);fill:#0082CA;" points="194.3,176.8 
		200.2,176.8 200.7,174.7 197.1,174.7 198.4,168.4 196.1,168.4 	"/>
	<path style="clip-path:url(#SVGID_00000007428806434679229320000002562281071711028364_);fill:#0082CA;" d="M204.9,173.2l1.3-2.4h0
		l0.2,2.4H204.9z M200.4,176.8h2.6l1-1.8h2.7l0.2,1.8h2.3l-1.4-8.4h-2.5L200.4,176.8z"/>
	<polygon style="clip-path:url(#SVGID_00000007428806434679229320000002562281071711028364_);fill:#0082CA;" points="210,176.8 
		212.3,176.8 213.3,172.1 215.9,176.8 217.9,176.8 219.6,168.4 217.4,168.4 216.4,173.2 213.8,168.4 211.8,168.4 	"/>
	<polygon style="clip-path:url(#SVGID_00000007428806434679229320000002562281071711028364_);fill:#0082CA;" points="221.3,176.8 
		223.5,176.8 224.9,170.5 227.2,170.5 227.6,168.4 220.7,168.4 220.3,170.5 222.6,170.5 	"/>
	<polygon style="clip-path:url(#SVGID_00000007428806434679229320000002562281071711028364_);fill:#FFF200;" points="29.5,180.2 
		38.6,180.2 41.8,165 46.9,173.7 55.7,165 52.5,180.2 61.6,180.2 67.7,151.7 58.9,151.7 48.8,161.9 43,151.7 35.5,151.7 	"/>
	<path style="clip-path:url(#SVGID_00000007428806434679229320000002562281071711028364_);fill:#FFF200;" d="M80.8,168.4l4-7.9H85
		l0.5,7.9H80.8z M64.7,180.2h10.2l2.8-5.5H86l0.5,5.5h9.4l-4.4-28.5H81.1L64.7,180.2z"/>
	<polygon style="clip-path:url(#SVGID_00000007428806434679229320000002562281071711028364_);fill:#FFF200;" points="100.5,180.2 
		109.7,180.2 114,160.1 121.5,160.1 123.3,151.7 99,151.7 97.3,160.1 104.8,160.1 	"/>
	<polygon style="clip-path:url(#SVGID_00000007428806434679229320000002562281071711028364_);fill:#FFF200;" points="121.5,180.2 
		144.5,180.2 146.1,172.7 132.3,172.7 133,169.3 143.2,169.3 144.6,162.7 134.4,162.7 135.1,159.3 148.6,159.3 150.2,151.7 
		127.5,151.7 	"/>
</g>
</svg>
