<svg id="Layer_1" data-name="Layer 1" xmlns="http://www.w3.org/2000/svg" viewBox="0 0 285 285"><defs><style>.cls-1{fill:#0061af;}</style></defs><title>Webpage logo 285x285px</title><path class="cls-1" d="M52.1,135.57h3.06L60,148.17H57.14l-1.08-2.88H51.2l-1.08,2.88H47.24Zm3.06,7.29-1.49-4.14h-.07l-1.49,4.14Z"/><path class="cls-1" d="M67,135.57a4.88,4.88,0,0,1,2.35.55A4,4,0,0,1,71,137.63,4.43,4.43,0,0,1,71,142a4,4,0,0,1-1.58,1.51A4.85,4.85,0,0,1,67,144H64.43v4.14h-2.7v-12.6Zm-.09,5.94a2,2,0,0,0,.95-.21,1.55,1.55,0,0,0,.63-.61,1.84,1.84,0,0,0,0-1.76,1.56,1.56,0,0,0-.63-.61,2,2,0,0,0-.95-.22H64.43v3.42Z"/><path class="cls-1" d="M79.28,135.57a4.88,4.88,0,0,1,2.35.55,4,4,0,0,1,1.58,1.51,4.43,4.43,0,0,1,0,4.34,4,4,0,0,1-1.58,1.51,4.85,4.85,0,0,1-2.35.55H76.67v4.14H74v-12.6Zm-.09,5.94a2,2,0,0,0,.95-.21,1.54,1.54,0,0,0,.63-.61,1.84,1.84,0,0,0,0-1.76,1.55,1.55,0,0,0-.63-.61,2,2,0,0,0-.95-.22H76.67v3.42Z"/><path class="cls-1" d="M88.91,135.57v10.08h5.85v2.52H86.21v-12.6Z"/><path class="cls-1" d="M99.44,135.57v12.6h-2.7v-12.6Z"/><path class="cls-1" d="M114.11,145.92a6.65,6.65,0,0,1-2.23,1.79,6.77,6.77,0,0,1-3.17.73,6.92,6.92,0,0,1-3.46-.89,6.63,6.63,0,0,1-2.47-2.39,6.44,6.44,0,0,1,0-6.57,6.63,6.63,0,0,1,2.47-2.39,6.92,6.92,0,0,1,3.46-.89,6.53,6.53,0,0,1,3.11.73,6.76,6.76,0,0,1,2.21,1.79l-1.8,1.8a4.92,4.92,0,0,0-1.49-1.28,4.06,4.06,0,1,0-2,7.58,4.21,4.21,0,0,0,2.09-.52,4.82,4.82,0,0,0,1.51-1.28Z"/><path class="cls-1" d="M119.42,135.57h3.06l4.86,12.6h-2.88l-1.08-2.88h-4.86l-1.08,2.88h-2.88Zm3.06,7.29L121,138.72h-.07l-1.49,4.14Z"/><path class="cls-1" d="M126.71,138.09v-2.52h9.9v2.52H133v10.08h-2.7V138.09Z"/><path class="cls-1" d="M141.29,135.57v12.6h-2.7v-12.6Z"/><path class="cls-1" d="M150.55,148.35a7,7,0,0,1-3.46-.88,6.59,6.59,0,0,1-2.48-2.36,6.29,6.29,0,0,1,0-6.48,6.59,6.59,0,0,1,2.48-2.36,7.27,7.27,0,0,1,6.93,0,6.59,6.59,0,0,1,2.47,2.36,6.28,6.28,0,0,1,0,6.48,6.59,6.59,0,0,1-2.47,2.36A7,7,0,0,1,150.55,148.35Zm0-2.52a4.06,4.06,0,0,0,2-.53,4,4,0,0,0,1.47-1.44,4,4,0,0,0,0-4,4,4,0,0,0-1.47-1.43,4.21,4.21,0,0,0-4.09,0,4,4,0,0,0-1.47,1.43,4,4,0,0,0,0,4,3.94,3.94,0,0,0,1.47,1.44A4.06,4.06,0,0,0,150.55,145.83Z"/><path class="cls-1" d="M162.25,135.57l6.12,7.83v-7.83h2.7v12.6h-2.43l-6.12-7.83v7.83h-2.7v-12.6Z"/><path class="cls-1" d="M176.29,138.09v-2.52h9.9v2.52h-3.6v10.08h-2.7V138.09Z"/><path class="cls-1" d="M193.84,148.35a7,7,0,0,1-3.46-.88,6.59,6.59,0,0,1-2.48-2.36,6.29,6.29,0,0,1,0-6.48,6.59,6.59,0,0,1,2.48-2.36,7.27,7.27,0,0,1,6.93,0,6.59,6.59,0,0,1,2.47,2.36,6.28,6.28,0,0,1,0,6.48,6.59,6.59,0,0,1-2.47,2.36A7,7,0,0,1,193.84,148.35Zm0-2.52a4.06,4.06,0,0,0,2-.53,4,4,0,0,0,1.47-1.44,4,4,0,0,0,0-4,4,4,0,0,0-1.47-1.43,4.21,4.21,0,0,0-4.09,0,4,4,0,0,0-1.47,1.43,4,4,0,0,0,0,4,3.94,3.94,0,0,0,1.47,1.44A4.06,4.06,0,0,0,193.84,145.83Z"/><path class="cls-1" d="M209.14,148.35a7,7,0,0,1-3.46-.88,6.59,6.59,0,0,1-2.48-2.36,6.29,6.29,0,0,1,0-6.48,6.59,6.59,0,0,1,2.48-2.36,7.27,7.27,0,0,1,6.93,0,6.59,6.59,0,0,1,2.47,2.36,6.28,6.28,0,0,1,0,6.48,6.59,6.59,0,0,1-2.47,2.36A7,7,0,0,1,209.14,148.35Zm0-2.52a4.06,4.06,0,0,0,2-.53,4,4,0,0,0,1.47-1.44,4,4,0,0,0,0-4,4,4,0,0,0-1.47-1.43,4.21,4.21,0,0,0-4.09,0,4,4,0,0,0-1.47,1.43,4,4,0,0,0,0,4,3.94,3.94,0,0,0,1.47,1.44A4.06,4.06,0,0,0,209.14,145.83Z"/><path class="cls-1" d="M221.11,135.57v10.08H227v2.52h-8.55v-12.6Z"/><path class="cls-1" d="M229.48,144.69a4.1,4.1,0,0,0,1.26.94,3.75,3.75,0,0,0,1.71.39,3.1,3.1,0,0,0,1.16-.19,1.49,1.49,0,0,0,.68-.51,1.23,1.23,0,0,0,.23-.73.93.93,0,0,0-.3-.69,2.49,2.49,0,0,0-.76-.48q-.46-.19-1.27-.46a18,18,0,0,1-2-.81A3.83,3.83,0,0,1,228.8,141a3.11,3.11,0,0,1-.58-1.95,3.22,3.22,0,0,1,.56-1.83,3.91,3.91,0,0,1,1.6-1.33,5.56,5.56,0,0,1,2.43-.5,6,6,0,0,1,2.47.49,5.36,5.36,0,0,1,1.76,1.21l-1.8,1.79a3.64,3.64,0,0,0-1-.75,2.88,2.88,0,0,0-1.31-.31,3,3,0,0,0-1.07.16,1.31,1.31,0,0,0-.62.43,1.08,1.08,0,0,0-.2.65.92.92,0,0,0,.3.69,2.5,2.5,0,0,0,.76.48c.31.13.73.28,1.27.46a17.57,17.57,0,0,1,2,.82,3.83,3.83,0,0,1,1.36,1.14,3.13,3.13,0,0,1,.58,2,3.38,3.38,0,0,1-.59,1.92,4.1,4.1,0,0,1-1.66,1.41,5.68,5.68,0,0,1-2.52.53,6.87,6.87,0,0,1-2.85-.57,6,6,0,0,1-2-1.39Z"/></svg>