<svg id="Layer_1" data-name="Layer 1" xmlns="http://www.w3.org/2000/svg" viewBox="0 0 285 285"><defs><style>.cls-1,.cls-2{fill:#231f20;}.cls-1{fill-rule:evenodd;}</style></defs><title>Webpage logo 285x285px</title><polygon class="cls-1" points="43.73 149.28 34.74 131.23 43.21 131.23 47.84 144 52.2 131.23 61.2 131.23 65.56 144 70.19 131.23 78.66 131.23 69.6 149.28 61.39 149.28 56.7 136.31 52.01 149.28 43.73 149.28"/><polygon class="cls-1" points="82.18 149.28 82.18 131.23 104.08 131.23 104.08 134.94 89.61 134.94 89.61 138.13 102.84 138.13 102.84 141.72 89.61 141.72 89.61 145.56 104.53 145.56 104.53 149.28 82.18 149.28"/><polygon class="cls-1" points="108.44 149.28 108.44 131.23 116.07 131.23 116.07 145.37 130.41 145.37 130.41 149.28 108.44 149.28"/><path class="cls-1" d="M133.08,149.28V131.23h14.08c4.89,0,8.6.78,11.21,2.35a7.39,7.39,0,0,1,3.91,6.71,7.26,7.26,0,0,1-4,6.71c-2.67,1.5-6.78,2.28-12.19,2.28Zm8.47-3.78h4.56c2.61,0,4.56-.46,5.73-1.3a5.17,5.17,0,0,0,0-7.88c-1.17-.85-3.13-1.24-5.73-1.24h-4.56Z"/><path class="cls-1" d="M182.28,140.28c0-2.93,1.5-5.28,4.43-7s7-2.54,12.06-2.54,9.12.85,12.12,2.54,4.5,4,4.5,7-1.5,5.21-4.5,6.91-7,2.54-12.12,2.54-9.06-.85-12.06-2.54-4.43-4-4.43-6.91Zm8.6,0a4.77,4.77,0,0,0,2,4.17,12.35,12.35,0,0,0,11.79,0,4.82,4.82,0,0,0,2.09-4.17A4.94,4.94,0,0,0,204.7,136a12.85,12.85,0,0,0-11.79,0A4.89,4.89,0,0,0,190.88,140.28Z"/><path class="cls-1" d="M218.58,149.28V131.23h9.12l6.26,5.93c1,1,2,1.89,2.87,2.87s1.76,1.89,2.61,2.8c-.13-1.37-.2-2.61-.26-3.84s-.13-2.22-.13-3.13v-4.63h8.15v18.05h-9.06l-6.52-6.13c-.72-.72-1.56-1.5-2.48-2.41s-1.82-1.82-2.8-2.87c.13,1.17.26,2.28.33,3.26s.13,1.89.13,2.67v5.47Z"/><polygon class="cls-1" points="175.89 139.44 177.52 134.03 172.7 136.05 167.94 134.03 169.57 139.44 167.94 143.61 172.7 142.11 177.52 143.61 175.89 139.44"/><path class="cls-1" d="M26.4,153.77v2.93A5.26,5.26,0,0,0,31.68,162h221.7a5.26,5.26,0,0,0,5.28-5.28v-2.93Z"/><path class="cls-1" d="M253.38,162.88v-1.8h.23l.22,0,.22,0,.22,0,.21-.05.21-.06.2-.07.2-.08.2-.09.19-.1.18-.11.18-.11.18-.12.16-.13.16-.14.15-.15.15-.15.14-.16.13-.17.12-.17.12-.18.1-.18.1-.19.09-.2.08-.2.07-.2.06-.21.05-.21,0-.22,0-.22,0-.22v-.23h1.79V157l0,.31,0,.31-.06.3-.07.3-.09.29-.1.29-.11.28-.12.27-.13.27-.15.26-.16.25-.17.25-.19.23-.19.23-.2.21-.21.2-.23.19-.23.18-.24.17-.25.16-.26.15-.27.13-.27.12-.28.11-.29.1-.29.09-.3.07-.3.06-.31,0-.31,0Zm0,0Zm-221.7-1.8v1.8h221.7v-1.8Zm0,1.8Zm-6.18-6.18h1.79v.23l0,.22,0,.22,0,.22.05.21.06.21.07.2.08.2.09.2.1.19.1.18.12.18.12.17.13.17.14.16.15.15.15.15.16.14.16.13.18.12.18.11.18.11.19.1.2.09.2.08.2.07.21.06.21.05.22,0,.22,0,.22,0h.23v1.8h-.31l-.32,0-.31,0-.3-.06-.3-.07-.29-.09-.29-.1-.28-.11-.27-.12-.27-.13-.26-.15-.25-.16-.24-.17-.23-.18-.23-.19-.21-.2-.2-.21-.19-.23-.18-.23-.17-.25-.16-.25-.15-.26-.13-.27-.12-.27-.11-.28-.1-.29-.09-.29-.07-.3-.06-.3,0-.31,0-.31v-.32Zm0,0h0Zm1.79-28.41H25.5v28.41h1.8V128.29Zm-1.8,0Zm6.18-6.18v1.8h-.23l-.22,0L31,124l-.22,0-.21.05-.21.06-.2.07-.2.08-.2.09-.19.1-.18.1-.18.12-.18.12-.16.13-.16.14-.15.15-.15.15-.14.16-.13.16-.12.18-.12.18-.1.18-.1.19-.09.2-.08.2-.07.2-.06.21-.05.21,0,.22,0,.22,0,.22v.23H25.5V128l0-.32,0-.31.06-.3.07-.3.09-.29.1-.29.11-.28.12-.27.13-.27.15-.26.16-.25.17-.24.18-.23.19-.23.2-.21.21-.2.23-.19.23-.18.24-.17.25-.16.26-.15.27-.13.27-.12.28-.11.29-.1.29-.09.3-.06.3-.06.31,0,.32,0Zm0,0Zm221.7,1.8v-1.8H31.68v1.8Zm0-1.8Zm6.18,6.18h-1.8v-.23l0-.22,0-.22,0-.22-.05-.21-.06-.21-.07-.2-.08-.2-.09-.2-.1-.19-.1-.18-.12-.18-.12-.18-.13-.16-.14-.16-.15-.15-.15-.15-.16-.14-.16-.13-.18-.12-.18-.12-.18-.1-.19-.1-.2-.09-.2-.08-.2-.07-.21-.06-.21-.05-.22,0-.22,0-.22,0h-.23v-1.8h.32l.31,0,.31,0,.3.06.3.06.29.09.29.1.28.11.27.12.27.13.26.15.25.16.24.17.23.18.23.19.21.2.2.21.19.23.19.23.17.24.16.25.15.26.13.27.12.27.11.28.1.29.09.29.07.3.06.3,0,.31,0,.32Zm0,0Zm-1.79,28.41h1.79V128.29h-1.8v28.41Zm1.79,0h0Z"/><path class="cls-2" d="M257,115.54a2.64,2.64,0,0,1,1.27.33,2.36,2.36,0,0,1,1,1,2.59,2.59,0,0,1,0,2.58,2.4,2.4,0,0,1-1,1,2.59,2.59,0,0,1-2.57,0,2.42,2.42,0,0,1-1-1,2.58,2.58,0,0,1,0-2.58,2.38,2.38,0,0,1,1-1A2.64,2.64,0,0,1,257,115.54Zm0,.43a2.2,2.2,0,0,0-1.06.28,2,2,0,0,0-.8.8,2.14,2.14,0,0,0,0,2.15,2,2,0,0,0,.8.8,2.14,2.14,0,0,0,2.14,0,2,2,0,0,0,.8-.8,2.16,2.16,0,0,0,0-2.15,2,2,0,0,0-.81-.8A2.2,2.2,0,0,0,257,116Zm-1.13,3.58v-2.78h1a2.36,2.36,0,0,1,.71.08.69.69,0,0,1,.35.27.71.71,0,0,1,.13.41.74.74,0,0,1-.22.53.86.86,0,0,1-.58.25.76.76,0,0,1,.24.15,3.21,3.21,0,0,1,.41.55l.34.54h-.55l-.25-.44a2.25,2.25,0,0,0-.47-.65.57.57,0,0,0-.36-.1h-.26v1.18Zm.45-1.56h.54a.87.87,0,0,0,.53-.12.4.4,0,0,0,.07-.53.41.41,0,0,0-.19-.14,1.42,1.42,0,0,0-.45,0h-.51Z"/></svg>