<svg id="Layer_1" data-name="Layer 1" xmlns="http://www.w3.org/2000/svg" xmlns:xlink="http://www.w3.org/1999/xlink" viewBox="0 0 285 285"><defs><style>.cls-1{fill:url(#linear-gradient);}.cls-2{fill:#f39424;}.cls-3{fill:#bfcbd1;fill-rule:evenodd;}.cls-4{fill:none;stroke:#6f6f6f;stroke-miterlimit:10;stroke-width:0.25px;}.cls-5{fill:#fff;}.cls-6{fill:#231f20;}</style><linearGradient id="linear-gradient" x1="182.63" y1="167.55" x2="193.99" y2="143.19" gradientUnits="userSpaceOnUse"><stop offset="0.32" stop-color="#f29124"/><stop offset="0.41" stop-color="#e98d25"/><stop offset="0.57" stop-color="#d18126"/><stop offset="0.76" stop-color="#ae7029"/></linearGradient></defs><title>Webpage logo 285x285px</title><polygon class="cls-1" points="191.03 171.38 190.32 170 189.25 170.65 188.76 169.18 187.56 169.77 187.16 168.26 186.03 168.78 185.5 167.22 184.75 167.62 184.47 141.74 190.72 141.66 191.03 171.38"/><path class="cls-2" d="M217.77,129.49l-1-1.5-.08-.1a18.42,18.42,0,0,0-31.45,6l0,0c-.21.71-.38,1.41-.51,2.13a18.48,18.48,0,0,0,3,14.14,18.15,18.15,0,0,0,11.56,7.68c.32.07.67.13,1.06.19h0a19,19,0,0,0,2.31.14h0a18.4,18.4,0,0,0,17.83-13.87v0c.07-.31.13-.59.18-.89A18.08,18.08,0,0,0,217.77,129.49ZM214,142.16a10.33,10.33,0,0,1-5,7.54,10.19,10.19,0,0,1-5.64,1.69,12.42,12.42,0,0,1-2.84-.35,11.46,11.46,0,0,1-7.27-5,11.28,11.28,0,0,1-1.75-8.65,10.88,10.88,0,0,1,4.73-7.32,10.24,10.24,0,0,1,6-1.93,12.15,12.15,0,0,1,9.7,5A11.83,11.83,0,0,1,214,142.16Z"/><path class="cls-2" d="M32.68,157.6H25.5V121.23h6.65v3.06a12.49,12.49,0,0,1,2.24-1.57h0a11.36,11.36,0,0,1,5.73-1.36l1.22,0v6.86l-1.23,0a6.83,6.83,0,0,0-4.22,1.39,11.18,11.18,0,0,0-2.33,2.41,8.76,8.76,0,0,0-.92,4.45Z"/><path class="cls-2" d="M109.39,146.35c-.53-6.24-5.79-8.92-10.11-10.08L94.39,135c-4.57-1.19-4.4-3-4.34-3.53v-.09c0-1.72,2-3.09,4.51-3.14s4.78,1.15,4.78,2.45v2.19h8.91l-.12-1.54-.08-1c-.27-2.77-1.86-5.09-4.73-6.87a15,15,0,0,0-8.2-2.44l-.62,0a16.05,16.05,0,0,0-9.36,3.2A9,9,0,0,0,81.33,132c.32,6.14,5.2,8.61,9.24,9.61l5,1.22c2.21.56,5.13,1.61,5.07,4.36A3.6,3.6,0,0,1,99.23,150a7.88,7.88,0,0,1-4.8,1.38A6.29,6.29,0,0,1,90.31,150c-1.16-.91-1.82-1.77-1.82-2.36v-2.54H79.78v1.44a10.73,10.73,0,0,0,4.07,8.41,16.26,16.26,0,0,0,9.82,3.7l.92,0a17.06,17.06,0,0,0,10.23-3.26C108.2,152.88,109.74,149.82,109.39,146.35Z"/><rect class="cls-2" x="113.53" y="121.99" width="6.88" height="35.61"/><rect class="cls-2" x="113.53" y="113.62" width="6.88" height="4.93"/><path class="cls-2" d="M144.45,128.59v-6.65h-7.6v-8.26h-7v8.26h-5.3v6.64h5.3v18.18c0,9.53,7.25,11.53,13.34,11.53h1.27V152.1h-1.27c-4.38,0-6.34-1.88-6.34-6.1V128.59Z"/><path class="cls-2" d="M175.77,126.91a17.89,17.89,0,0,0-12.71-5.73,17.13,17.13,0,0,0-13.3,5.3,18.71,18.71,0,0,0-.37,26.2,17.66,17.66,0,0,0,12.54,5.68h.68a17,17,0,0,0,11.33-4.16v3.39h6.82V139.76A17,17,0,0,0,175.77,126.91Zm-2,12.5a11.73,11.73,0,0,1-3.42,8.68,10.24,10.24,0,0,1-7.72,3.39h-.59a10.82,10.82,0,0,1-7.77-3.7,11.51,11.51,0,0,1-3.09-8.29,11.23,11.23,0,0,1,3.4-8.12,10.94,10.94,0,0,1,8.1-3.34,10.19,10.19,0,0,1,7.73,3.32A11.54,11.54,0,0,1,173.82,139.41Z"/><path class="cls-2" d="M259.5,138.93a17.09,17.09,0,0,0-5.06-12,18.36,18.36,0,0,0-12.33-5.84,17.53,17.53,0,0,0-13.78,5.34,18.58,18.58,0,0,0,.12,26.71,17.74,17.74,0,0,0,12.66,5.28h.25A18.38,18.38,0,0,0,251.89,155a17.8,17.8,0,0,0,5.58-6.39l.94-1.82-7.75-.13-.39.53a10.23,10.23,0,0,1-8.77,4.3,11.35,11.35,0,0,1-7.91-2.89,10.78,10.78,0,0,1-3.58-6H259.5Zm-7.26-3H230.16a11,11,0,0,1,3.63-5.35,11.36,11.36,0,0,1,7.54-2.56A11.39,11.39,0,0,1,252.24,136Z"/><path class="cls-2" d="M78.53,138.93a17.11,17.11,0,0,0-5.06-12,18.35,18.35,0,0,0-12.33-5.84,17.55,17.55,0,0,0-13.78,5.34,18.57,18.57,0,0,0,.12,26.71,17.74,17.74,0,0,0,12.65,5.28h.26A18.37,18.37,0,0,0,70.91,155a17.79,17.79,0,0,0,5.58-6.39l.94-1.82-7.75-.13-.39.53a10.23,10.23,0,0,1-8.77,4.3,11.38,11.38,0,0,1-7.91-2.89,10.81,10.81,0,0,1-3.58-6H78.53Zm-7.26-3H49.19a11,11,0,0,1,3.63-5.35,11.4,11.4,0,0,1,7.54-2.56A11.38,11.38,0,0,1,71.26,136Z"/><path class="cls-3" d="M206.89,135a9.43,9.43,0,0,1-2.42,13.12,9.17,9.17,0,0,1-2.17,1.1A9.43,9.43,0,1,0,200.16,131,9.43,9.43,0,0,1,206.89,135Z"/><circle class="cls-4" cx="202.77" cy="139.9" r="9.37" transform="translate(-43.58 139.62) rotate(-34.54)"/><path class="cls-5" d="M202.77,151.78a11.89,11.89,0,1,1,6.73-2.1A11.89,11.89,0,0,1,202.77,151.78Zm0-21.22a9.35,9.35,0,1,0,7.71,4A9.28,9.28,0,0,0,202.76,130.56Z"/><path class="cls-6" d="M256.28,118.23a3.21,3.21,0,0,1,1.54.4,2.87,2.87,0,0,1,1.17,1.16,3.14,3.14,0,0,1,0,3.13,2.91,2.91,0,0,1-1.16,1.16,3.14,3.14,0,0,1-3.11,0,2.92,2.92,0,0,1-1.16-1.16,3.13,3.13,0,0,1,0-3.12,2.89,2.89,0,0,1,1.17-1.16A3.21,3.21,0,0,1,256.28,118.23Zm0,.52a2.66,2.66,0,0,0-1.28.34,2.42,2.42,0,0,0-1,1,2.6,2.6,0,0,0,0,2.6,2.46,2.46,0,0,0,1,1,2.61,2.61,0,0,0,2.6,0,2.44,2.44,0,0,0,1-1,2.62,2.62,0,0,0,0-2.6,2.41,2.41,0,0,0-1-1A2.67,2.67,0,0,0,256.28,118.75Zm-1.37,4.34v-3.37h1.16a2.83,2.83,0,0,1,.86.09.83.83,0,0,1,.42.33.86.86,0,0,1,.16.49.9.9,0,0,1-.26.64,1,1,0,0,1-.7.31.92.92,0,0,1,.29.18,3.85,3.85,0,0,1,.5.67l.41.66h-.66l-.3-.53a2.72,2.72,0,0,0-.57-.78.7.7,0,0,0-.44-.12h-.32v1.43Zm.54-1.9h.66a1.06,1.06,0,0,0,.64-.14.48.48,0,0,0,.09-.64.5.5,0,0,0-.23-.18,1.71,1.71,0,0,0-.55-.06h-.62Z"/></svg>