<svg id="Layer_1" data-name="Layer 1" xmlns="http://www.w3.org/2000/svg" viewBox="0 0 285 285"><defs><style>.cls-1{fill:#23576f;}.cls-2{fill:#231f20;}</style></defs><title>Webpage logo 285x285px</title><polygon class="cls-1" points="55.89 167.88 55.89 147.76 37.13 147.76 37.13 167.88 25.5 167.88 25.5 119.75 37.13 119.75 37.13 137.97 55.89 137.97 55.89 119.75 67.52 119.75 67.52 167.88 55.89 167.88"/><polygon class="cls-1" points="74.98 167.88 74.98 119.75 107.35 119.75 107.35 129.6 86.2 129.6 86.2 138.65 106.19 138.65 106.19 147.96 86.2 147.96 86.2 157.96 108.58 157.96 108.58 167.88 74.98 167.88"/><polygon class="cls-1" points="145.29 167.88 134.75 150.88 124.62 167.88 110.75 167.88 127.61 142.46 112.11 119.75 126.12 119.75 135.09 134.7 143.93 119.75 157.47 119.75 142.23 142.46 159.64 167.88 145.29 167.88"/><polygon class="cls-1" points="246.31 167.88 226.93 136.4 226.73 136.4 227 167.88 215.71 167.88 215.71 119.75 228.97 119.75 248.28 151.16 248.49 151.16 248.21 119.75 259.5 119.75 259.5 167.88 246.31 167.88"/><path class="cls-1" d="M191,158.45H174.16l-8.44-14.62,8.44-14.62H191l8.44,14.62Zm5.47-38.71H168.69l-13.91,24.09,13.91,24.09h27.81l13.91-24.09Z"/><path class="cls-2" d="M252.84,119v-3.57h-1.36v-.62h3.43v.62h-1.37V119Zm2.54,0v-4.2h1l1.06,3.35,1-3.35h1V119h-.64v-3.52L257.78,119h-.63L256,115.46V119Z"/></svg>