<svg id="Layer_1" data-name="Layer 1" xmlns="http://www.w3.org/2000/svg" xmlns:xlink="http://www.w3.org/1999/xlink" viewBox="0 0 285 285"><defs><style>.cls-1{fill:none;}.cls-2{clip-path:url(#clip-path);}.cls-3{fill:url(#linear-gradient);}.cls-4{fill:#312e80;}.cls-5{fill:#fff;fill-rule:evenodd;}.cls-6{fill:#231f20;}</style><clipPath id="clip-path"><path class="cls-1" d="M140.7-256c-2.42.32-59.63,7.84-85.92,17.78l-1.27.48v1.4c0,2.77-.47,68.16,7.21,98.83,3.61,14.44,15.06,29.94,32.24,43.66,15.14,12.09,32.92,21.35,47.57,24.77l.43.1.43-.1C156-72.5,173.8-81.76,188.94-93.84c17.18-13.72,28.63-29.22,32.24-43.66,7.67-30.68,7.23-96.07,7.21-98.83v-1.4l-1.27-.48c-26.3-9.94-83.5-17.46-85.92-17.78l-.24,0Z"/></clipPath><linearGradient id="linear-gradient" x1="-1312.46" y1="-843.41" x2="-1311.57" y2="-843.41" gradientTransform="matrix(-111.23, -192.65, -192.65, 111.23, -308282.67, -159124.89)" gradientUnits="userSpaceOnUse"><stop offset="0" stop-color="#8b8486"/><stop offset="1" stop-color="#4c4447"/></linearGradient></defs><title>Webpage logo 285x285px</title><g class="cls-2"><polygon class="cls-3" points="96.99 9.94 -25.1 -209.26 184.9 -334.94 306.99 -115.74 96.99 9.94"/></g><rect class="cls-4" x="25.5" y="116" width="234" height="53"/><path class="cls-5" d="M208.22,129.56H214v18.83c0,1.88,1.17,1.84,2.2,1.84h8.19v5.28H213.84c-3,0-5.62-1.26-5.62-5.27V129.56Zm-53.22-5h91.92a.66.66,0,0,0,.66-.66v-1.24a.66.66,0,0,0-.66-.66H155a.66.66,0,0,0-.66.66v1.24a.66.66,0,0,0,.66.66Zm-116.92,0H138.71a.66.66,0,0,0,.66-.66v-1.24a.66.66,0,0,0-.66-.66H38.08a.66.66,0,0,0-.66.66v1.24a.66.66,0,0,0,.66.66ZM155,163.06h91.92a.66.66,0,0,0,.66-.66v-1.24a.66.66,0,0,0-.66-.66H155a.66.66,0,0,0-.66.66v1.24a.66.66,0,0,0,.66.66Zm-116.92,0H138.71a.66.66,0,0,0,.66-.66v-1.24a.66.66,0,0,0-.66-.66H38.08a.66.66,0,0,0-.66.66v1.24a.66.66,0,0,0,.66.66ZM152.33,124v-1.52a.51.51,0,0,0-.51-.51h-9.54a.51.51,0,0,0-.51.51V124a.51.51,0,0,0,.51.51h9.54a.51.51,0,0,0,.51-.51Zm-8.19,1.44v34.18H150V125.4Zm-2,35.11a.51.51,0,0,0-.37.49v1.52a.51.51,0,0,0,.51.51h9.54a.51.51,0,0,0,.51-.51V161a.51.51,0,0,0-.37-.49ZM188,135.24c0-4.88,3.59-5.7,6.06-5.67,0,0,8.39.14,11.5.57V135h-9.9c-1.84,0-1.84,1-1.84,2v2.94l10.06.38v4.81l-10.06.33v2.94c0,1.88,1.17,1.84,2.2,1.84h9.55V155c-2.74.37-11.14.6-11.14.6-2.31.09-6.42-.41-6.42-5.48V135.24Zm-28.75-5.67L164.34,148l4-18.48h6.17l-1.59,6.12,3.89,12.42,4.08-18.54h6.14l-6.79,26h-6.88l-3-9.67-2.64,9.67h-6.88l-7.78-26Zm-38.19,0h19.61v5.28h-7v20.67h-5.82V134.85H121v-5.28Zm-19.34,6.63c0-5.14,3-6.76,7-6.84a33.58,33.58,0,0,1,10.46,1.09V135c-2.27-.22-6.84-.35-8.6-.35-2.06,0-3.07.09-3.07,2.09v.88c0,1.63.53,2.15,2.5,2.15h3.76c5.22,0,6.36,4.31,6.36,7.16v1.48c0,6.2-3.68,7.41-7.19,7.41-5.41,0-7.37-.15-10.43-1.13v-4.55c1.42.14,5.81.39,9.1.39,1.51,0,2.7-.31,2.7-1.89v-1c0-1.28-.39-2-2.14-2h-3.63c-6.47,0-6.84-5.17-6.84-7.16V136.2Zm-15.78-6.63h6.75l8.18,26H94.78l-1.7-5.21H85.25l-1.7,5.21h-6.1l8.47-26Zm5.89,15.7h0L89.36,137l-2.7,8.24Zm-32.42-15.7h5.81v18.83c0,1.88,1.17,1.84,2.2,1.84H75.6v5.28H65c-3,0-5.62-1.26-5.62-5.27V129.56Zm-21.83,0H48.9c3.41,0,7.56,1,7.56,8.18,0,8.1-4.46,8.72-7.56,8.54a54.79,54.79,0,0,1-5.52-.71v9.95H37.56v-26Zm10.81,11.7h0c1.47,0,2.24-.9,2.24-3.44s-1-3.21-2.24-3.21h-5v6.65Zm178.76-11.7h11.53c7.29,0,8.93,6.25,8.93,13.08,0,8.28-2.78,12.87-8.93,12.87H227.12v-26Zm11,20.91h0c2.69,0,3.64-2.75,3.64-7.86,0-6.71-1.36-8-3.64-8h-5.19v15.89Z"/><path class="cls-6" d="M253.14,114.4V111h-1.3v-.59h3.27V111h-1.31v3.41Zm2.42,0v-4h1l1,3.2,1-3.2h1v4h-.61V111l-1,3.36h-.6L256.18,111v3.41Z"/></svg>