<svg id="Layer_1" data-name="Layer 1" xmlns="http://www.w3.org/2000/svg" viewBox="0 0 285 285"><defs><style>.cls-1{fill:#21576f;}.cls-2{fill:#231f20;}</style></defs><title>Webpage logo 285x285px</title><path class="cls-1" d="M46,162l-8.4-15.35H34.47V162H25.34V123.29H40.09a25.66,25.66,0,0,1,5.43.57,14.16,14.16,0,0,1,4.75,1.94,10.15,10.15,0,0,1,3.36,3.61A11.27,11.27,0,0,1,54.9,135a10.28,10.28,0,0,1-2.13,6.61,11.62,11.62,0,0,1-5.9,3.83L57,162Zm-.38-26.83a3.87,3.87,0,0,0-.58-2.21,3.94,3.94,0,0,0-1.48-1.31,6.47,6.47,0,0,0-2-.63,14.91,14.91,0,0,0-2.17-.16h-5v9h4.45a15,15,0,0,0,2.36-.19,7.5,7.5,0,0,0,2.2-.68,4,4,0,0,0,2.25-3.82Z"/><path class="cls-1" d="M59.38,162V123.29h26v7.87h-17v7.32H84.46V146H68.39v8h18v8Z"/><path class="cls-1" d="M113,133.35a8.43,8.43,0,0,0-3.14-2.43,8.84,8.84,0,0,0-3.74-.9,11.12,11.12,0,0,0-1.88.16,4.87,4.87,0,0,0-1.72.63,4.25,4.25,0,0,0-1.28,1.2,3.2,3.2,0,0,0-.52,1.88,3.05,3.05,0,0,0,.41,1.64,3.66,3.66,0,0,0,1.2,1.15,10.68,10.68,0,0,0,1.89.9q1.09.41,2.46.85,2,.66,4.1,1.45a15.29,15.29,0,0,1,3.88,2.1,11,11,0,0,1,2.9,3.25,9.36,9.36,0,0,1,1.15,4.83,12.65,12.65,0,0,1-1.23,5.76,11.5,11.5,0,0,1-3.31,4,14.17,14.17,0,0,1-4.75,2.35,20,20,0,0,1-5.52.77,22.8,22.8,0,0,1-8-1.45,17,17,0,0,1-6.45-4.13l6.12-6.23a11.29,11.29,0,0,0,3.74,2.92,10.14,10.14,0,0,0,4.62,1.17,9.36,9.36,0,0,0,2-.22,5,5,0,0,0,1.72-.71,3.59,3.59,0,0,0,1.17-1.31,4.15,4.15,0,0,0,.44-2,3.11,3.11,0,0,0-.55-1.86,5.35,5.35,0,0,0-1.56-1.39,12.65,12.65,0,0,0-2.52-1.15q-1.5-.52-3.41-1.12a32.43,32.43,0,0,1-3.63-1.42,12.19,12.19,0,0,1-3.17-2.1,9.73,9.73,0,0,1-2.24-3.11,10.55,10.55,0,0,1-.85-4.45,10.94,10.94,0,0,1,1.31-5.52A11.39,11.39,0,0,1,96,125.15a14.81,14.81,0,0,1,4.81-2.16,21.82,21.82,0,0,1,5.41-.68,20.09,20.09,0,0,1,6.69,1.2,17.25,17.25,0,0,1,6,3.55Z"/><path class="cls-1" d="M122.65,162V123.29H132V162Z"/><path class="cls-1" d="M165.56,162a34.82,34.82,0,0,1-8.28.93,24,24,0,0,1-8.55-1.48,19.73,19.73,0,0,1-6.72-4.15,18.9,18.9,0,0,1-4.4-6.42,22.73,22.73,0,0,1,0-16.75,18.67,18.67,0,0,1,4.45-6.42,19.72,19.72,0,0,1,6.66-4.07,23.52,23.52,0,0,1,8.25-1.42,25.35,25.35,0,0,1,8.52,1.39,17.64,17.64,0,0,1,6.39,3.74l-5.9,6.72a10.22,10.22,0,0,0-3.61-2.6,12.23,12.23,0,0,0-5.08-1,11.27,11.27,0,0,0-4.54.9,10.93,10.93,0,0,0-3.61,2.51,11.44,11.44,0,0,0-2.38,3.83,13.4,13.4,0,0,0-.85,4.83,15.13,15.13,0,0,0,.76,4.92,10.58,10.58,0,0,0,2.27,3.85,10.33,10.33,0,0,0,3.71,2.51,13.31,13.31,0,0,0,5.05.9,19,19,0,0,0,3.11-.24,11.71,11.71,0,0,0,2.73-.79v-7h-7.38v-7.54h16v20.49A29.74,29.74,0,0,1,165.56,162Z"/><path class="cls-1" d="M197.28,162l-8.4-15.35h-3.18V162h-9.12V123.29h14.75a25.66,25.66,0,0,1,5.43.57,14.15,14.15,0,0,1,4.75,1.94,10.15,10.15,0,0,1,3.36,3.61,11.27,11.27,0,0,1,1.26,5.57A10.28,10.28,0,0,1,204,141.6a11.61,11.61,0,0,1-5.9,3.83L208.2,162Zm-.38-26.83a3.86,3.86,0,0,0-.58-2.21,4,4,0,0,0-1.48-1.31,6.47,6.47,0,0,0-2-.63,14.93,14.93,0,0,0-2.17-.16h-5v9h4.45a15,15,0,0,0,2.36-.19,7.49,7.49,0,0,0,2.2-.68,4,4,0,0,0,2.25-3.82Z"/><path class="cls-1" d="M211.7,162V123.29h9.4V162Z"/><path class="cls-1" d="M256.23,135.2a11.87,11.87,0,0,1-1.26,5.71,10.35,10.35,0,0,1-3.39,3.74,15,15,0,0,1-4.92,2.08,25.22,25.22,0,0,1-5.79.66h-4.64V162h-9.34V123.29h14.21a26.7,26.7,0,0,1,5.93.63,14,14,0,0,1,4.81,2,9.82,9.82,0,0,1,3.22,3.66A12.09,12.09,0,0,1,256.23,135.2Zm-9.34.05a4.17,4.17,0,0,0-.55-2.24,3.8,3.8,0,0,0-1.48-1.37,6.3,6.3,0,0,0-2.1-.66,17.44,17.44,0,0,0-2.43-.16h-4.1V140h3.93a14,14,0,0,0,2.51-.22,6.74,6.74,0,0,0,2.16-.77,4.09,4.09,0,0,0,1.5-1.45A4.32,4.32,0,0,0,246.88,135.26Z"/><path class="cls-2" d="M254.75,120.7A2.65,2.65,0,0,1,256,121a2.37,2.37,0,0,1,1,1,2.6,2.6,0,0,1,0,2.59,2.41,2.41,0,0,1-1,1,2.6,2.6,0,0,1-2.58,0,2.42,2.42,0,0,1-1-1,2.59,2.59,0,0,1,0-2.59,2.38,2.38,0,0,1,1-1A2.65,2.65,0,0,1,254.75,120.7Zm0,.43a2.2,2.2,0,0,0-1.06.28,2,2,0,0,0-.81.8,2.15,2.15,0,0,0,0,2.16,2,2,0,0,0,.8.8,2.15,2.15,0,0,0,2.15,0,2,2,0,0,0,.8-.8,2.16,2.16,0,0,0,0-2.16,2,2,0,0,0-.81-.8A2.21,2.21,0,0,0,254.75,121.13Zm-1.14,3.59v-2.79h1a2.36,2.36,0,0,1,.71.08.69.69,0,0,1,.35.27.72.72,0,0,1,.13.41.74.74,0,0,1-.22.53.86.86,0,0,1-.58.25.76.76,0,0,1,.24.15,3.17,3.17,0,0,1,.41.55l.34.55h-.55l-.25-.44a2.24,2.24,0,0,0-.47-.65.58.58,0,0,0-.36-.1h-.26v1.18Zm.45-1.57h.55a.88.88,0,0,0,.53-.12.4.4,0,0,0,.07-.53.41.41,0,0,0-.19-.15,1.42,1.42,0,0,0-.45,0h-.51Z"/></svg>