<svg id="Layer_1" data-name="Layer 1" xmlns="http://www.w3.org/2000/svg" viewBox="0 0 285 285"><defs><style>.cls-1{fill:#010101;}.cls-2{fill:#231f20;}</style></defs><title>Webpage logo 285x285px</title><path class="cls-1" d="M224.54,157.53h-19.3v-8.62h17.25v-8H205.24v-7.8h18.24v-8.51H195.56V166.1h29Zm13.2,8.56h10v-33H259.5v-8.56H226v8.56h11.73Zm-85.47-29.39h.18l10.5,29.39h7l10.79-29.39H181l-.23,29.39h9.8V124.57H176l-9,26.63h-.24l-9.44-26.63H143.06V166.1h9.44ZM35.66,149.62h3.4l9,16.48H59.77L48.91,148.33c5.34-1.64,8.62-5.63,8.62-11.21,0-9.5-7.92-12.55-15.9-12.55H25.8V166.1h9.86Zm-.06-17h5.34c3,0,6.69.76,6.69,4.63,0,4.22-4,5-7.27,5H35.6Zm73.32,26.22a12.29,12.29,0,0,1-9-4.4l-6.57,6.69c3.64,3.81,9.62,6,15.55,6,8.21,0,15.9-4.28,15.9-13.84,0-8.27-7.27-10.68-12.91-12.49-3.93-1.23-6.39-2.11-6.39-4.87,0-3.29,3.23-4.17,5.81-4.17a10.05,10.05,0,0,1,7.39,3.58l6.39-6.75a20.76,20.76,0,0,0-13.61-5.1c-7.74,0-16.07,3.81-16.07,13,0,7.51,5.34,10.21,10.62,11.91,5.45,1.76,8.62,2.76,8.62,5.93C114.67,157.71,112,158.88,108.92,158.88ZM138,124.57H127.93V166.1H138Zm-46.69,33H72v-8.62H89.27v-8H72v-7.8H90.27v-8.51H62.35V166.1h29Z"/><path class="cls-2" d="M257,117.84a2.64,2.64,0,0,1,1.27.33,2.37,2.37,0,0,1,1,1,2.59,2.59,0,0,1,0,2.58,2.4,2.4,0,0,1-1,1,2.59,2.59,0,0,1-2.57,0,2.41,2.41,0,0,1-1-1,2.58,2.58,0,0,1,0-2.58,2.38,2.38,0,0,1,1-1A2.64,2.64,0,0,1,257,117.84Zm0,.43a2.2,2.2,0,0,0-1.06.28,2,2,0,0,0-.81.8,2.14,2.14,0,0,0,0,2.15,2,2,0,0,0,.8.8,2.15,2.15,0,0,0,2.14,0,2,2,0,0,0,.8-.8,2.16,2.16,0,0,0,0-2.15,2,2,0,0,0-.81-.8A2.2,2.2,0,0,0,257,118.27Zm-1.13,3.58v-2.78h1a2.35,2.35,0,0,1,.71.08.69.69,0,0,1,.35.27.71.71,0,0,1,.13.41.74.74,0,0,1-.22.53.86.86,0,0,1-.58.25.75.75,0,0,1,.24.15,3.17,3.17,0,0,1,.41.55l.34.54h-.55l-.25-.44a2.23,2.23,0,0,0-.47-.65.57.57,0,0,0-.36-.1h-.26v1.18Zm.45-1.56h.54a.88.88,0,0,0,.53-.12.4.4,0,0,0,.07-.53.41.41,0,0,0-.19-.14,1.42,1.42,0,0,0-.45,0h-.51Z"/></svg>