<svg id="Layer_1" data-name="Layer 1" xmlns="http://www.w3.org/2000/svg" viewBox="0 0 285 285"><defs><style>.cls-1{fill:#070606;}.cls-1,.cls-2{fill-rule:evenodd;}.cls-2{fill:#ffc113;}.cls-3{fill:#231f20;}</style></defs><title>Webpage logo 285x285px</title><path class="cls-1" d="M25.5,154.77V126.26H37.79a8.67,8.67,0,0,1,3.85.86,10,10,0,0,1,3,2.25,10.49,10.49,0,0,1,2,3.17,9.51,9.51,0,0,1,.72,3.59A10.47,10.47,0,0,1,44.79,143a9.1,9.1,0,0,1-3,2.21A8.88,8.88,0,0,1,38,146H33.33v8.75Zm7.83-15.58h4.14a1.83,1.83,0,0,0,1.35-.66,3.51,3.51,0,0,0,.62-2.39,3.16,3.16,0,0,0-.72-2.41,2.19,2.19,0,0,0-1.44-.64H33.33Z"/><polygon class="cls-1" points="69.32 147.94 69.32 154.77 49.01 154.77 49.01 126.26 68.96 126.26 68.96 133.09 56.84 133.09 56.84 137.1 67.19 137.1 67.19 143.45 56.84 143.45 56.84 147.94 69.32 147.94"/><path class="cls-1" d="M90.41,135.58a21.94,21.94,0,0,0-2.49-1.28,22.67,22.67,0,0,0-2.43-.9,8.75,8.75,0,0,0-2.63-.42,3.64,3.64,0,0,0-1.67.32,1.12,1.12,0,0,0-.62,1.08,1.25,1.25,0,0,0,.36.92,3.38,3.38,0,0,0,1,.66,13.06,13.06,0,0,0,1.67.58q1,.28,2.23.68a29.18,29.18,0,0,1,3.55,1.33,11,11,0,0,1,2.71,1.71,6.58,6.58,0,0,1,1.73,2.39,8.65,8.65,0,0,1,.6,3.41,9,9,0,0,1-.94,4.32A7.72,7.72,0,0,1,91,153.16a10.45,10.45,0,0,1-3.49,1.51,17,17,0,0,1-3.91.46,22.2,22.2,0,0,1-3.21-.24,27.84,27.84,0,0,1-3.27-.68,28.44,28.44,0,0,1-3.13-1,19.86,19.86,0,0,1-2.79-1.37l3.37-6.87a23.43,23.43,0,0,0,2.93,1.57,20.77,20.77,0,0,0,2.91,1.08,11.62,11.62,0,0,0,3.31.48,3.36,3.36,0,0,0,1.79-.34,1,1,0,0,0,.5-.9,1.3,1.3,0,0,0-.5-1,4.59,4.59,0,0,0-1.39-.74q-.88-.32-2-.64t-2.43-.76a20.83,20.83,0,0,1-3.25-1.39,8.75,8.75,0,0,1-2.25-1.69,6,6,0,0,1-1.3-2.15,8.36,8.36,0,0,1-.42-2.77,9.58,9.58,0,0,1,.86-4.17,8.57,8.57,0,0,1,2.35-3,10.51,10.51,0,0,1,3.39-1.83,13,13,0,0,1,4-.62,15.27,15.27,0,0,1,3.05.3,24.55,24.55,0,0,1,2.87.76,27.62,27.62,0,0,1,2.59,1q1.2.54,2.17,1Z"/><polygon class="cls-1" points="120.22 133.09 112.03 133.09 112.03 154.77 104.2 154.77 104.2 133.09 95.97 133.09 95.97 126.26 120.22 126.26 120.22 133.09"/><polygon class="cls-1" points="167.08 154.77 167.08 126.26 186.63 126.26 186.63 133.09 174.91 133.09 174.91 137.82 184.47 137.82 184.47 144.17 174.91 144.17 174.91 154.77 167.08 154.77"/><path class="cls-1" d="M188.86,154.77V126.26h13.09a8.66,8.66,0,0,1,3.85.86,10,10,0,0,1,3,2.25,10.5,10.5,0,0,1,2,3.17,9.51,9.51,0,0,1,.72,3.59,10.14,10.14,0,0,1-1.08,4.64,9.45,9.45,0,0,1-3,3.51l6.42,10.48H205L199.62,146h-2.93v8.75Zm7.83-15.58h4.94a1.73,1.73,0,0,0,1.35-.8,3.59,3.59,0,0,0,.62-2.25,3.23,3.23,0,0,0-.72-2.27,2,2,0,0,0-1.45-.78h-4.74Z"/><polygon class="cls-1" points="236.07 147.94 236.07 154.77 215.75 154.77 215.75 126.26 235.71 126.26 235.71 133.09 223.58 133.09 223.58 137.1 233.94 137.1 233.94 143.45 223.58 143.45 223.58 147.94 236.07 147.94"/><polygon class="cls-1" points="259.5 147.94 259.5 154.77 239.18 154.77 239.18 126.26 259.5 126.26 259.5 133.09 247.01 133.09 247.01 137.1 257.37 137.1 257.37 143.45 247.01 143.45 247.01 147.94 259.5 147.94"/><path class="cls-1" d="M140.32,151.83,128,156l10.32-34.64a21.65,21.65,0,0,0-1.58,41.85Z"/><path class="cls-1" d="M152.39,123l-8.27,17.41,16.49-4.5L143,164.15A21.66,21.66,0,0,0,152.39,123Z"/><path class="cls-2" d="M144.15,107.46l-14,46.41,12.45-4-9.72,27.69,24.51-39.1-15.69,4.15,16.21-35.13Z"/><path class="cls-3" d="M252.91,125.24v-3.53h-1.34v-.62H255v.62H253.6v3.53Zm2.51,0v-4.15h1l1,3.32,1-3.32h1v4.15h-.63v-3.48l-1.07,3.48h-.63l-1.12-3.53v3.53Z"/></svg>